<?xml version="1.0" encoding="UTF-8" standalone="no"?>
<!DOCTYPE svg PUBLIC "-//W3C//DTD SVG 1.1//EN"
 "http://www.w3.org/Graphics/SVG/1.1/DTD/svg11.dtd">
<!-- Generated by graphviz version 2.40.1 (20161225.0304)
 -->
<!-- Title: G Pages: 1 -->
<svg width="2006pt" height="260pt"
 viewBox="0.00 0.00 2006.00 260.00" xmlns="http://www.w3.org/2000/svg" xmlns:xlink="http://www.w3.org/1999/xlink">
<g id="graph0" class="graph" transform="scale(1 1) rotate(0) translate(4 256)">
<title>G</title>
<polygon fill="#ffffff" stroke="transparent" points="-4,4 -4,-256 2002,-256 2002,4 -4,4"/>
<!-- 44 -->
<g id="node1" class="node">
<title>44</title>
<ellipse fill="#ff0000" stroke="#000000" cx="1539" cy="-18" rx="18" ry="18"/>
<text text-anchor="middle" x="1539" y="-14.3" font-family="Times,serif" font-size="14.00" fill="#000000">44</text>
</g>
<!-- 47 -->
<g id="node2" class="node">
<title>47</title>
<ellipse fill="#ff0000" stroke="#000000" cx="711" cy="-18" rx="18" ry="18"/>
<text text-anchor="middle" x="711" y="-14.3" font-family="Times,serif" font-size="14.00" fill="#000000">47</text>
</g>
<!-- 0 -->
<g id="node3" class="node">
<title>0</title>
<ellipse fill="none" stroke="#000000" cx="1737" cy="-90" rx="27" ry="18"/>
<text text-anchor="middle" x="1737" y="-86.3" font-family="Times,serif" font-size="14.00" fill="#000000">0</text>
</g>
<!-- 16 -->
<g id="node4" class="node">
<title>16</title>
<ellipse fill="none" stroke="#000000" cx="1287" cy="-18" rx="27" ry="18"/>
<text text-anchor="middle" x="1287" y="-14.3" font-family="Times,serif" font-size="14.00" fill="#000000">16</text>
</g>
<!-- 0&#45;&gt;16 -->
<g id="edge1" class="edge">
<title>0&#45;&gt;16</title>
<path fill="none" stroke="#000000" d="M1713.3493,-81.055C1704.0065,-77.8025 1693.1062,-74.3518 1683,-72 1553.153,-41.7835 1395.1478,-26.5058 1324.3948,-20.7637"/>
<polygon fill="#000000" stroke="#000000" points="1324.4498,-17.2571 1314.204,-19.954 1323.8954,-24.2351 1324.4498,-17.2571"/>
</g>
<!-- 32 -->
<g id="node5" class="node">
<title>32</title>
<ellipse fill="none" stroke="#000000" cx="1827" cy="-162" rx="27" ry="18"/>
<text text-anchor="middle" x="1827" y="-158.3" font-family="Times,serif" font-size="14.00" fill="#000000">32</text>
</g>
<!-- 32&#45;&gt;0 -->
<g id="edge5" class="edge">
<title>32&#45;&gt;0</title>
<path fill="none" stroke="#000000" d="M1809.6471,-148.1177C1796.2003,-137.3602 1777.3761,-122.3009 1762.259,-110.2072"/>
<polygon fill="#000000" stroke="#000000" points="1764.2948,-107.3536 1754.2996,-103.8397 1759.9219,-112.8197 1764.2948,-107.3536"/>
</g>
<!-- 36 -->
<g id="node6" class="node">
<title>36</title>
<ellipse fill="none" stroke="#000000" cx="1503" cy="-90" rx="27" ry="18"/>
<text text-anchor="middle" x="1503" y="-86.3" font-family="Times,serif" font-size="14.00" fill="#000000">36</text>
</g>
<!-- 32&#45;&gt;36 -->
<g id="edge2" class="edge">
<title>32&#45;&gt;36</title>
<path fill="none" stroke="#000000" d="M1806.1529,-150.1659C1801.3013,-147.8132 1796.0691,-145.5835 1791,-144 1683.0091,-110.2662 1646.9909,-141.7338 1539,-108 1537.0991,-107.4062 1535.1752,-106.7215 1533.2571,-105.9736"/>
<polygon fill="#000000" stroke="#000000" points="1534.4099,-102.657 1523.8471,-101.8341 1531.5913,-109.0645 1534.4099,-102.657"/>
</g>
<!-- 40 -->
<g id="node7" class="node">
<title>40</title>
<ellipse fill="none" stroke="#000000" cx="1818" cy="-90" rx="27" ry="18"/>
<text text-anchor="middle" x="1818" y="-86.3" font-family="Times,serif" font-size="14.00" fill="#000000">40</text>
</g>
<!-- 32&#45;&gt;40 -->
<g id="edge3" class="edge">
<title>32&#45;&gt;40</title>
<path fill="none" stroke="#000000" d="M1824.7289,-143.8314C1823.7664,-136.131 1822.6218,-126.9743 1821.5521,-118.4166"/>
<polygon fill="#000000" stroke="#000000" points="1825.0151,-117.9019 1820.3017,-108.4133 1818.0691,-118.7702 1825.0151,-117.9019"/>
</g>
<!-- 48 -->
<g id="node8" class="node">
<title>48</title>
<ellipse fill="none" stroke="#000000" cx="1251" cy="-90" rx="27" ry="18"/>
<text text-anchor="middle" x="1251" y="-86.3" font-family="Times,serif" font-size="14.00" fill="#000000">48</text>
</g>
<!-- 32&#45;&gt;48 -->
<g id="edge4" class="edge">
<title>32&#45;&gt;48</title>
<path fill="none" stroke="#000000" d="M1806.6136,-150.0841C1801.652,-147.6743 1796.2566,-145.4405 1791,-144 1574.4149,-84.6461 1503.5851,-167.3539 1287,-108 1284.8645,-107.4148 1282.7061,-106.6987 1280.5632,-105.893"/>
<polygon fill="#000000" stroke="#000000" points="1281.9535,-102.681 1271.3864,-101.9159 1279.17,-109.1038 1281.9535,-102.681"/>
</g>
<!-- 36&#45;&gt;44 -->
<g id="edge21" class="edge">
<title>36&#45;&gt;44</title>
<path fill="none" stroke="#000000" d="M1511.7146,-72.5708C1516.0845,-63.831 1521.4599,-53.0802 1526.2808,-43.4383"/>
<polygon fill="#000000" stroke="#000000" points="1529.5175,-44.7912 1530.8592,-34.2817 1523.2565,-41.6607 1529.5175,-44.7912"/>
</g>
<!-- 40&#45;&gt;44 -->
<g id="edge11" class="edge">
<title>40&#45;&gt;44</title>
<path fill="none" stroke="#000000" d="M1795.353,-80.1531C1788.2764,-77.2904 1780.387,-74.3147 1773,-72 1699.858,-49.0815 1611.0902,-31.2315 1566.8598,-22.9896"/>
<polygon fill="#000000" stroke="#000000" points="1567.3295,-19.5174 1556.8611,-21.1495 1566.0624,-26.4018 1567.3295,-19.5174"/>
</g>
<!-- 48&#45;&gt;16 -->
<g id="edge6" class="edge">
<title>48&#45;&gt;16</title>
<path fill="none" stroke="#000000" d="M1259.7146,-72.5708C1263.9597,-64.0807 1269.1536,-53.6929 1273.8663,-44.2674"/>
<polygon fill="#000000" stroke="#000000" points="1277.024,-45.7782 1278.3657,-35.2687 1270.763,-42.6477 1277.024,-45.7782"/>
</g>
<!-- 8 -->
<g id="node9" class="node">
<title>8</title>
<ellipse fill="none" stroke="#000000" cx="1971" cy="-162" rx="27" ry="18"/>
<text text-anchor="middle" x="1971" y="-158.3" font-family="Times,serif" font-size="14.00" fill="#000000">8</text>
</g>
<!-- 8&#45;&gt;0 -->
<g id="edge8" class="edge">
<title>8&#45;&gt;0</title>
<path fill="none" stroke="#000000" d="M1950.0408,-150.4987C1945.1949,-148.1288 1939.9935,-145.8079 1935,-144 1869.3155,-120.2189 1848.6161,-129.0308 1782,-108 1777.8476,-106.6891 1773.5351,-105.1726 1769.297,-103.5873"/>
<polygon fill="#000000" stroke="#000000" points="1770.2415,-100.1989 1759.6531,-99.8274 1767.6987,-106.7208 1770.2415,-100.1989"/>
</g>
<!-- 8&#45;&gt;40 -->
<g id="edge10" class="edge">
<title>8&#45;&gt;40</title>
<path fill="none" stroke="#000000" d="M1949.3519,-151.039C1944.6348,-148.689 1939.6606,-146.24 1935,-144 1906.2905,-130.2015 1873.3238,-115.0477 1849.7164,-104.3145"/>
<polygon fill="#000000" stroke="#000000" points="1851.0799,-101.0898 1840.5273,-100.145 1848.1875,-107.4643 1851.0799,-101.0898"/>
</g>
<!-- 12 -->
<g id="node10" class="node">
<title>12</title>
<ellipse fill="none" stroke="#000000" cx="1575" cy="-90" rx="27" ry="18"/>
<text text-anchor="middle" x="1575" y="-86.3" font-family="Times,serif" font-size="14.00" fill="#000000">12</text>
</g>
<!-- 8&#45;&gt;12 -->
<g id="edge7" class="edge">
<title>8&#45;&gt;12</title>
<path fill="none" stroke="#000000" d="M1950.1887,-150.0481C1945.3352,-147.7016 1940.0932,-145.5041 1935,-144 1796.0463,-102.965 1749.9537,-149.035 1611,-108 1609.09,-107.436 1607.1592,-106.7744 1605.2357,-106.0441"/>
<polygon fill="#000000" stroke="#000000" points="1606.3779,-102.7244 1595.8113,-101.9519 1603.5899,-109.1452 1606.3779,-102.7244"/>
</g>
<!-- 24 -->
<g id="node11" class="node">
<title>24</title>
<ellipse fill="none" stroke="#000000" cx="1395" cy="-90" rx="27" ry="18"/>
<text text-anchor="middle" x="1395" y="-86.3" font-family="Times,serif" font-size="14.00" fill="#000000">24</text>
</g>
<!-- 8&#45;&gt;24 -->
<g id="edge9" class="edge">
<title>8&#45;&gt;24</title>
<path fill="none" stroke="#000000" d="M1950.6079,-150.1049C1945.6465,-147.6942 1940.2526,-145.4549 1935,-144 1733.9551,-88.3138 1672.9207,-141.4163 1467,-108 1454.704,-106.0046 1441.4264,-102.9492 1429.6623,-99.9189"/>
<polygon fill="#000000" stroke="#000000" points="1430.3402,-96.4776 1419.7765,-97.2897 1428.5409,-103.2424 1430.3402,-96.4776"/>
</g>
<!-- 12&#45;&gt;44 -->
<g id="edge27" class="edge">
<title>12&#45;&gt;44</title>
<path fill="none" stroke="#000000" d="M1566.2854,-72.5708C1561.9155,-63.831 1556.5401,-53.0802 1551.7192,-43.4383"/>
<polygon fill="#000000" stroke="#000000" points="1554.7435,-41.6607 1547.1408,-34.2817 1548.4825,-44.7912 1554.7435,-41.6607"/>
</g>
<!-- 24&#45;&gt;16 -->
<g id="edge12" class="edge">
<title>24&#45;&gt;16</title>
<path fill="none" stroke="#000000" d="M1375.6918,-77.1278C1358.6445,-65.763 1333.5981,-49.0654 1314.4656,-36.3104"/>
<polygon fill="#000000" stroke="#000000" points="1316.4031,-33.3956 1306.1411,-30.7607 1312.5201,-39.2199 1316.4031,-33.3956"/>
</g>
<!-- 56 -->
<g id="node12" class="node">
<title>56</title>
<ellipse fill="none" stroke="#000000" cx="1395" cy="-162" rx="27" ry="18"/>
<text text-anchor="middle" x="1395" y="-158.3" font-family="Times,serif" font-size="14.00" fill="#000000">56</text>
</g>
<!-- 56&#45;&gt;40 -->
<g id="edge15" class="edge">
<title>56&#45;&gt;40</title>
<path fill="none" stroke="#000000" d="M1415.4225,-150.2118C1420.3826,-147.7967 1425.7683,-145.5286 1431,-144 1577.7061,-101.1362 1624.6392,-144.7299 1773,-108 1777.2268,-106.9536 1781.5836,-105.5946 1785.8451,-104.0923"/>
<polygon fill="#000000" stroke="#000000" points="1787.4135,-107.2402 1795.5097,-100.4063 1784.919,-100.6997 1787.4135,-107.2402"/>
</g>
<!-- 56&#45;&gt;48 -->
<g id="edge14" class="edge">
<title>56&#45;&gt;48</title>
<path fill="none" stroke="#000000" d="M1373.1295,-151.0647C1348.7778,-138.8889 1309.238,-119.119 1281.7715,-105.3858"/>
<polygon fill="#000000" stroke="#000000" points="1283.114,-102.1439 1272.6045,-100.8022 1279.9835,-108.4049 1283.114,-102.1439"/>
</g>
<!-- 56&#45;&gt;24 -->
<g id="edge16" class="edge">
<title>56&#45;&gt;24</title>
<path fill="none" stroke="#000000" d="M1395,-143.8314C1395,-136.131 1395,-126.9743 1395,-118.4166"/>
<polygon fill="#000000" stroke="#000000" points="1398.5001,-118.4132 1395,-108.4133 1391.5001,-118.4133 1398.5001,-118.4132"/>
</g>
<!-- 60 -->
<g id="node13" class="node">
<title>60</title>
<ellipse fill="none" stroke="#000000" cx="1179" cy="-90" rx="27" ry="18"/>
<text text-anchor="middle" x="1179" y="-86.3" font-family="Times,serif" font-size="14.00" fill="#000000">60</text>
</g>
<!-- 56&#45;&gt;60 -->
<g id="edge13" class="edge">
<title>56&#45;&gt;60</title>
<path fill="none" stroke="#000000" d="M1374.022,-150.5501C1369.1771,-148.1775 1363.9808,-145.8425 1359,-144 1297.128,-121.1121 1276.872,-130.8879 1215,-108 1213.1322,-107.3091 1211.2341,-106.5489 1209.3356,-105.7434"/>
<polygon fill="#000000" stroke="#000000" points="1210.5266,-102.4391 1199.978,-101.4499 1207.6074,-108.8014 1210.5266,-102.4391"/>
</g>
<!-- 60&#45;&gt;44 -->
<g id="edge32" class="edge">
<title>60&#45;&gt;44</title>
<path fill="none" stroke="#000000" d="M1199.8749,-78.2531C1204.7251,-75.8959 1209.9497,-73.6423 1215,-72 1320.9701,-37.5403 1453.9389,-24.2248 1510.948,-19.852"/>
<polygon fill="#000000" stroke="#000000" points="1511.2794,-23.3372 1520.9965,-19.1147 1510.7671,-16.356 1511.2794,-23.3372"/>
</g>
<!-- 4 -->
<g id="node14" class="node">
<title>4</title>
<ellipse fill="none" stroke="#000000" cx="1611" cy="-162" rx="27" ry="18"/>
<text text-anchor="middle" x="1611" y="-158.3" font-family="Times,serif" font-size="14.00" fill="#000000">4</text>
</g>
<!-- 4&#45;&gt;0 -->
<g id="edge17" class="edge">
<title>4&#45;&gt;0</title>
<path fill="none" stroke="#000000" d="M1631.5245,-150.2717C1652.2092,-138.4519 1684.3287,-120.0979 1707.6909,-106.7481"/>
<polygon fill="#000000" stroke="#000000" points="1709.5383,-109.7236 1716.4843,-101.7233 1706.0653,-103.6459 1709.5383,-109.7236"/>
</g>
<!-- 4&#45;&gt;36 -->
<g id="edge20" class="edge">
<title>4&#45;&gt;36</title>
<path fill="none" stroke="#000000" d="M1591.6918,-149.1278C1574.6445,-137.763 1549.5981,-121.0654 1530.4656,-108.3104"/>
<polygon fill="#000000" stroke="#000000" points="1532.4031,-105.3956 1522.1411,-102.7607 1528.5201,-111.2199 1532.4031,-105.3956"/>
</g>
<!-- 4&#45;&gt;12 -->
<g id="edge18" class="edge">
<title>4&#45;&gt;12</title>
<path fill="none" stroke="#000000" d="M1602.2854,-144.5708C1598.0403,-136.0807 1592.8464,-125.6929 1588.1337,-116.2674"/>
<polygon fill="#000000" stroke="#000000" points="1591.237,-114.6477 1583.6343,-107.2687 1584.976,-117.7782 1591.237,-114.6477"/>
</g>
<!-- 20 -->
<g id="node15" class="node">
<title>20</title>
<ellipse fill="none" stroke="#000000" cx="1107" cy="-90" rx="27" ry="18"/>
<text text-anchor="middle" x="1107" y="-86.3" font-family="Times,serif" font-size="14.00" fill="#000000">20</text>
</g>
<!-- 4&#45;&gt;20 -->
<g id="edge19" class="edge">
<title>4&#45;&gt;20</title>
<path fill="none" stroke="#000000" d="M1590.6011,-150.1292C1585.64,-147.7175 1580.248,-145.4716 1575,-144 1389.4901,-91.9801 1328.5099,-160.0199 1143,-108 1140.868,-107.4022 1138.7122,-106.6765 1136.5712,-105.8639"/>
<polygon fill="#000000" stroke="#000000" points="1137.9648,-102.6533 1127.3989,-101.8708 1135.1706,-109.0715 1137.9648,-102.6533"/>
</g>
<!-- 20&#45;&gt;16 -->
<g id="edge22" class="edge">
<title>20&#45;&gt;16</title>
<path fill="none" stroke="#000000" d="M1128.5278,-78.7766C1133.2525,-76.4429 1138.2601,-74.0669 1143,-72 1179.9991,-55.8658 1223.5166,-39.9559 1252.9513,-29.6317"/>
<polygon fill="#000000" stroke="#000000" points="1254.4493,-32.8163 1262.7416,-26.2217 1252.1468,-26.2058 1254.4493,-32.8163"/>
</g>
<!-- 52 -->
<g id="node16" class="node">
<title>52</title>
<ellipse fill="none" stroke="#000000" cx="1107" cy="-162" rx="27" ry="18"/>
<text text-anchor="middle" x="1107" y="-158.3" font-family="Times,serif" font-size="14.00" fill="#000000">52</text>
</g>
<!-- 52&#45;&gt;36 -->
<g id="edge25" class="edge">
<title>52&#45;&gt;36</title>
<path fill="none" stroke="#000000" d="M1127.8268,-150.0998C1132.6795,-147.7506 1137.9172,-145.5389 1143,-144 1266.4612,-106.619 1304.1971,-131.6861 1431,-108 1443.1471,-105.731 1456.298,-102.6357 1467.9958,-99.6518"/>
<polygon fill="#000000" stroke="#000000" points="1469.0482,-102.9945 1477.8398,-97.0818 1467.2799,-96.2215 1469.0482,-102.9945"/>
</g>
<!-- 52&#45;&gt;48 -->
<g id="edge23" class="edge">
<title>52&#45;&gt;48</title>
<path fill="none" stroke="#000000" d="M1128.8705,-151.0647C1153.2222,-138.8889 1192.762,-119.119 1220.2285,-105.3858"/>
<polygon fill="#000000" stroke="#000000" points="1222.0165,-108.4049 1229.3955,-100.8022 1218.886,-102.1439 1222.0165,-108.4049"/>
</g>
<!-- 52&#45;&gt;60 -->
<g id="edge24" class="edge">
<title>52&#45;&gt;60</title>
<path fill="none" stroke="#000000" d="M1122.2693,-146.7307C1132.197,-136.803 1145.3153,-123.6847 1156.4363,-112.5637"/>
<polygon fill="#000000" stroke="#000000" points="1159.1564,-114.7933 1163.7527,-105.2473 1154.2067,-109.8436 1159.1564,-114.7933"/>
</g>
<!-- 52&#45;&gt;20 -->
<g id="edge26" class="edge">
<title>52&#45;&gt;20</title>
<path fill="none" stroke="#000000" d="M1107,-143.8314C1107,-136.131 1107,-126.9743 1107,-118.4166"/>
<polygon fill="#000000" stroke="#000000" points="1110.5001,-118.4132 1107,-108.4133 1103.5001,-118.4133 1110.5001,-118.4132"/>
</g>
<!-- 28 -->
<g id="node17" class="node">
<title>28</title>
<ellipse fill="none" stroke="#000000" cx="1179" cy="-162" rx="27" ry="18"/>
<text text-anchor="middle" x="1179" y="-158.3" font-family="Times,serif" font-size="14.00" fill="#000000">28</text>
</g>
<!-- 28&#45;&gt;12 -->
<g id="edge30" class="edge">
<title>28&#45;&gt;12</title>
<path fill="none" stroke="#000000" d="M1199.8113,-150.0481C1204.6648,-147.7016 1209.9068,-145.5041 1215,-144 1353.9537,-102.965 1400.0463,-149.035 1539,-108 1540.91,-107.436 1542.8408,-106.7744 1544.7643,-106.0441"/>
<polygon fill="#000000" stroke="#000000" points="1546.4101,-109.1452 1554.1887,-101.9519 1543.6221,-102.7244 1546.4101,-109.1452"/>
</g>
<!-- 28&#45;&gt;24 -->
<g id="edge28" class="edge">
<title>28&#45;&gt;24</title>
<path fill="none" stroke="#000000" d="M1199.978,-150.5501C1204.8229,-148.1775 1210.0192,-145.8425 1215,-144 1276.872,-121.1121 1297.128,-130.8879 1359,-108 1360.8678,-107.3091 1362.7659,-106.5489 1364.6644,-105.7434"/>
<polygon fill="#000000" stroke="#000000" points="1366.3926,-108.8014 1374.022,-101.4499 1363.4734,-102.4391 1366.3926,-108.8014"/>
</g>
<!-- 28&#45;&gt;60 -->
<g id="edge31" class="edge">
<title>28&#45;&gt;60</title>
<path fill="none" stroke="#000000" d="M1179,-143.8314C1179,-136.131 1179,-126.9743 1179,-118.4166"/>
<polygon fill="#000000" stroke="#000000" points="1182.5001,-118.4132 1179,-108.4133 1175.5001,-118.4133 1182.5001,-118.4132"/>
</g>
<!-- 28&#45;&gt;20 -->
<g id="edge29" class="edge">
<title>28&#45;&gt;20</title>
<path fill="none" stroke="#000000" d="M1163.7307,-146.7307C1153.803,-136.803 1140.6847,-123.6847 1129.5637,-112.5637"/>
<polygon fill="#000000" stroke="#000000" points="1131.7933,-109.8436 1122.2473,-105.2473 1126.8436,-114.7933 1131.7933,-109.8436"/>
</g>
<!-- 2 -->
<g id="node18" class="node">
<title>2</title>
<ellipse fill="none" stroke="#000000" cx="1755" cy="-162" rx="27" ry="18"/>
<text text-anchor="middle" x="1755" y="-158.3" font-family="Times,serif" font-size="14.00" fill="#000000">2</text>
</g>
<!-- 2&#45;&gt;0 -->
<g id="edge34" class="edge">
<title>2&#45;&gt;0</title>
<path fill="none" stroke="#000000" d="M1750.5506,-144.2022C1748.5602,-136.2406 1746.1668,-126.6671 1743.9489,-117.7957"/>
<polygon fill="#000000" stroke="#000000" points="1747.2816,-116.6951 1741.4606,-107.8425 1740.4906,-118.3929 1747.2816,-116.6951"/>
</g>
<!-- 3 -->
<g id="node19" class="node">
<title>3</title>
<ellipse fill="none" stroke="#000000" cx="819" cy="-90" rx="27" ry="18"/>
<text text-anchor="middle" x="819" y="-86.3" font-family="Times,serif" font-size="14.00" fill="#000000">3</text>
</g>
<!-- 2&#45;&gt;3 -->
<g id="edge33" class="edge">
<title>2&#45;&gt;3</title>
<path fill="none" stroke="#000000" d="M1734.6438,-149.9708C1729.6809,-147.5656 1724.2774,-145.3624 1719,-144 1346.8676,-47.9298 1227.1324,-204.0702 855,-108 853.021,-107.4891 851.0242,-106.8599 849.0396,-106.1463"/>
<polygon fill="#000000" stroke="#000000" points="849.9285,-102.721 839.3562,-102.0292 847.1895,-109.1629 849.9285,-102.721"/>
</g>
<!-- 18 -->
<g id="node20" class="node">
<title>18</title>
<ellipse fill="none" stroke="#000000" cx="1323" cy="-90" rx="27" ry="18"/>
<text text-anchor="middle" x="1323" y="-86.3" font-family="Times,serif" font-size="14.00" fill="#000000">18</text>
</g>
<!-- 2&#45;&gt;18 -->
<g id="edge35" class="edge">
<title>2&#45;&gt;18</title>
<path fill="none" stroke="#000000" d="M1734.5832,-150.192C1729.6229,-147.7777 1724.2356,-145.5149 1719,-144 1564.5381,-99.3064 1513.4619,-152.6936 1359,-108 1356.873,-107.3846 1354.721,-106.6457 1352.5828,-105.8234"/>
<polygon fill="#000000" stroke="#000000" points="1353.9808,-102.6148 1343.4168,-101.808 1351.172,-109.0265 1353.9808,-102.6148"/>
</g>
<!-- 19 -->
<g id="node26" class="node">
<title>19</title>
<ellipse fill="none" stroke="#000000" cx="486" cy="-18" rx="27" ry="18"/>
<text text-anchor="middle" x="486" y="-14.3" font-family="Times,serif" font-size="14.00" fill="#000000">19</text>
</g>
<!-- 3&#45;&gt;19 -->
<g id="edge161" class="edge">
<title>3&#45;&gt;19</title>
<path fill="none" stroke="#000000" d="M798.107,-78.3081C793.2577,-75.9481 788.0381,-73.6794 783,-72 692.1978,-41.7326 579.7949,-27.1678 522.8256,-21.3056"/>
<polygon fill="#000000" stroke="#000000" points="523.149,-17.8206 512.8509,-20.3104 522.454,-24.786 523.149,-17.8206"/>
</g>
<!-- 18&#45;&gt;16 -->
<g id="edge43" class="edge">
<title>18&#45;&gt;16</title>
<path fill="none" stroke="#000000" d="M1314.2854,-72.5708C1310.0403,-64.0807 1304.8464,-53.6929 1300.1337,-44.2674"/>
<polygon fill="#000000" stroke="#000000" points="1303.237,-42.6477 1295.6343,-35.2687 1296.976,-45.7782 1303.237,-42.6477"/>
</g>
<!-- 18&#45;&gt;19 -->
<g id="edge42" class="edge">
<title>18&#45;&gt;19</title>
<path fill="none" stroke="#000000" d="M1302.6257,-78.0396C1297.6636,-75.6316 1292.2649,-73.4098 1287,-72 1157.3299,-37.2773 817.8598,-46.0779 684,-36 627.7593,-31.7658 562.6485,-25.6037 522.9028,-21.6997"/>
<polygon fill="#000000" stroke="#000000" points="523.1752,-18.2096 512.8797,-20.7102 522.4874,-25.1758 523.1752,-18.2096"/>
</g>
<!-- 34 -->
<g id="node21" class="node">
<title>34</title>
<ellipse fill="none" stroke="#000000" cx="1638" cy="-234" rx="27" ry="18"/>
<text text-anchor="middle" x="1638" y="-230.3" font-family="Times,serif" font-size="14.00" fill="#000000">34</text>
</g>
<!-- 34&#45;&gt;32 -->
<g id="edge37" class="edge">
<title>34&#45;&gt;32</title>
<path fill="none" stroke="#000000" d="M1662.7372,-226.319C1693.2909,-216.5933 1746.662,-198.8227 1791,-180 1792.7849,-179.2423 1794.6059,-178.4373 1796.4341,-177.6042"/>
<polygon fill="#000000" stroke="#000000" points="1797.9735,-180.7479 1805.5023,-173.2935 1794.9682,-174.4258 1797.9735,-180.7479"/>
</g>
<!-- 34&#45;&gt;2 -->
<g id="edge41" class="edge">
<title>34&#45;&gt;2</title>
<path fill="none" stroke="#000000" d="M1657.8475,-221.7862C1676.673,-210.2013 1705.1646,-192.6679 1726.4321,-179.5803"/>
<polygon fill="#000000" stroke="#000000" points="1728.3729,-182.4956 1735.0552,-174.2737 1724.7042,-176.5339 1728.3729,-182.4956"/>
</g>
<!-- 35 -->
<g id="node22" class="node">
<title>35</title>
<ellipse fill="none" stroke="#000000" cx="819" cy="-162" rx="27" ry="18"/>
<text text-anchor="middle" x="819" y="-158.3" font-family="Times,serif" font-size="14.00" fill="#000000">35</text>
</g>
<!-- 34&#45;&gt;35 -->
<g id="edge36" class="edge">
<title>34&#45;&gt;35</title>
<path fill="none" stroke="#000000" d="M1614.7114,-224.6929C1605.3229,-221.3507 1594.2952,-217.9325 1584,-216 1265.1732,-156.1544 1168.7823,-262.2963 855,-180 853.023,-179.4815 851.0277,-178.8465 849.0443,-178.1283"/>
<polygon fill="#000000" stroke="#000000" points="849.9353,-174.7034 839.3639,-173.9997 847.1892,-181.1422 849.9353,-174.7034"/>
</g>
<!-- 38 -->
<g id="node23" class="node">
<title>38</title>
<ellipse fill="none" stroke="#000000" cx="1539" cy="-162" rx="27" ry="18"/>
<text text-anchor="middle" x="1539" y="-158.3" font-family="Times,serif" font-size="14.00" fill="#000000">38</text>
</g>
<!-- 34&#45;&gt;38 -->
<g id="edge38" class="edge">
<title>34&#45;&gt;38</title>
<path fill="none" stroke="#000000" d="M1619.3789,-220.4574C1604.3065,-209.4956 1582.8746,-193.9088 1565.9313,-181.5864"/>
<polygon fill="#000000" stroke="#000000" points="1567.6836,-178.5331 1557.5376,-175.4819 1563.5664,-184.1943 1567.6836,-178.5331"/>
</g>
<!-- 42 -->
<g id="node24" class="node">
<title>42</title>
<ellipse fill="none" stroke="#000000" cx="1899" cy="-162" rx="27" ry="18"/>
<text text-anchor="middle" x="1899" y="-158.3" font-family="Times,serif" font-size="14.00" fill="#000000">42</text>
</g>
<!-- 34&#45;&gt;42 -->
<g id="edge39" class="edge">
<title>34&#45;&gt;42</title>
<path fill="none" stroke="#000000" d="M1663.3029,-227.5831C1677.0957,-224.1081 1694.4735,-219.7673 1710,-216 1777.8873,-199.5282 1797.3155,-203.7811 1863,-180 1864.8725,-179.322 1866.7743,-178.5719 1868.6757,-177.7742"/>
<polygon fill="#000000" stroke="#000000" points="1870.3958,-180.8365 1878.0408,-173.5013 1867.4901,-174.468 1870.3958,-180.8365"/>
</g>
<!-- 50 -->
<g id="node25" class="node">
<title>50</title>
<ellipse fill="none" stroke="#000000" cx="1323" cy="-162" rx="27" ry="18"/>
<text text-anchor="middle" x="1323" y="-158.3" font-family="Times,serif" font-size="14.00" fill="#000000">50</text>
</g>
<!-- 34&#45;&gt;50 -->
<g id="edge40" class="edge">
<title>34&#45;&gt;50</title>
<path fill="none" stroke="#000000" d="M1614.3202,-225.1768C1604.9736,-221.9402 1594.0783,-218.4685 1584,-216 1485.6356,-191.9074 1455.409,-211.0049 1359,-180 1357.1041,-179.3903 1355.1842,-178.6932 1353.2691,-177.9359"/>
<polygon fill="#000000" stroke="#000000" points="1354.4277,-174.6211 1343.867,-173.7712 1351.5927,-181.0214 1354.4277,-174.6211"/>
</g>
<!-- 35&#45;&gt;3 -->
<g id="edge165" class="edge">
<title>35&#45;&gt;3</title>
<path fill="none" stroke="#000000" d="M819,-143.8314C819,-136.131 819,-126.9743 819,-118.4166"/>
<polygon fill="#000000" stroke="#000000" points="822.5001,-118.4132 819,-108.4133 815.5001,-118.4133 822.5001,-118.4132"/>
</g>
<!-- 51 -->
<g id="node27" class="node">
<title>51</title>
<ellipse fill="none" stroke="#000000" cx="450" cy="-90" rx="27" ry="18"/>
<text text-anchor="middle" x="450" y="-86.3" font-family="Times,serif" font-size="14.00" fill="#000000">51</text>
</g>
<!-- 35&#45;&gt;51 -->
<g id="edge164" class="edge">
<title>35&#45;&gt;51</title>
<path fill="none" stroke="#000000" d="M798.1775,-150.0858C793.3246,-147.7372 788.0857,-145.5295 783,-144 655.6675,-105.706 613.3325,-146.294 486,-108 484.0929,-107.4265 482.1642,-106.7575 480.2424,-106.0215"/>
<polygon fill="#000000" stroke="#000000" points="481.388,-102.7028 470.8225,-101.9142 478.5901,-109.1194 481.388,-102.7028"/>
</g>
<!-- 43 -->
<g id="node32" class="node">
<title>43</title>
<ellipse fill="none" stroke="#000000" cx="891" cy="-90" rx="27" ry="18"/>
<text text-anchor="middle" x="891" y="-86.3" font-family="Times,serif" font-size="14.00" fill="#000000">43</text>
</g>
<!-- 35&#45;&gt;43 -->
<g id="edge163" class="edge">
<title>35&#45;&gt;43</title>
<path fill="none" stroke="#000000" d="M834.2693,-146.7307C844.197,-136.803 857.3153,-123.6847 868.4363,-112.5637"/>
<polygon fill="#000000" stroke="#000000" points="871.1564,-114.7933 875.7527,-105.2473 866.2067,-109.8436 871.1564,-114.7933"/>
</g>
<!-- 39 -->
<g id="node41" class="node">
<title>39</title>
<ellipse fill="none" stroke="#000000" cx="603" cy="-90" rx="27" ry="18"/>
<text text-anchor="middle" x="603" y="-86.3" font-family="Times,serif" font-size="14.00" fill="#000000">39</text>
</g>
<!-- 35&#45;&gt;39 -->
<g id="edge162" class="edge">
<title>35&#45;&gt;39</title>
<path fill="none" stroke="#000000" d="M798.022,-150.5501C793.1771,-148.1775 787.9808,-145.8425 783,-144 721.128,-121.1121 700.872,-130.8879 639,-108 637.1322,-107.3091 635.2341,-106.5489 633.3356,-105.7434"/>
<polygon fill="#000000" stroke="#000000" points="634.5266,-102.4391 623.978,-101.4499 631.6074,-108.8014 634.5266,-102.4391"/>
</g>
<!-- 38&#45;&gt;36 -->
<g id="edge72" class="edge">
<title>38&#45;&gt;36</title>
<path fill="none" stroke="#000000" d="M1530.2854,-144.5708C1526.0403,-136.0807 1520.8464,-125.6929 1516.1337,-116.2674"/>
<polygon fill="#000000" stroke="#000000" points="1519.237,-114.6477 1511.6343,-107.2687 1512.976,-117.7782 1519.237,-114.6477"/>
</g>
<!-- 46 -->
<g id="node33" class="node">
<title>46</title>
<ellipse fill="none" stroke="#000000" cx="1647" cy="-90" rx="27" ry="18"/>
<text text-anchor="middle" x="1647" y="-86.3" font-family="Times,serif" font-size="14.00" fill="#000000">46</text>
</g>
<!-- 38&#45;&gt;46 -->
<g id="edge73" class="edge">
<title>38&#45;&gt;46</title>
<path fill="none" stroke="#000000" d="M1558.3082,-149.1278C1575.3555,-137.763 1600.4019,-121.0654 1619.5344,-108.3104"/>
<polygon fill="#000000" stroke="#000000" points="1621.4799,-111.2199 1627.8589,-102.7607 1617.5969,-105.3956 1621.4799,-111.2199"/>
</g>
<!-- 38&#45;&gt;39 -->
<g id="edge71" class="edge">
<title>38&#45;&gt;39</title>
<path fill="none" stroke="#000000" d="M1518.6438,-149.9708C1513.6809,-147.5656 1508.2774,-145.3624 1503,-144 1130.8676,-47.9298 1011.1324,-204.0702 639,-108 637.021,-107.4891 635.0242,-106.8599 633.0396,-106.1463"/>
<polygon fill="#000000" stroke="#000000" points="633.9285,-102.721 623.3562,-102.0292 631.1895,-109.1629 633.9285,-102.721"/>
</g>
<!-- 42&#45;&gt;40 -->
<g id="edge54" class="edge">
<title>42&#45;&gt;40</title>
<path fill="none" stroke="#000000" d="M1882.6084,-147.4297C1870.9707,-137.0851 1855.1572,-123.0286 1842.0881,-111.4116"/>
<polygon fill="#000000" stroke="#000000" points="1844.1666,-108.5763 1834.3672,-104.5486 1839.516,-113.8082 1844.1666,-108.5763"/>
</g>
<!-- 42&#45;&gt;43 -->
<g id="edge53" class="edge">
<title>42&#45;&gt;43</title>
<path fill="none" stroke="#000000" d="M1878.64,-149.9853C1873.6773,-147.5795 1868.2748,-145.3724 1863,-144 1692.4948,-99.6382 1246.7183,-120.7701 1071,-108 1021.3942,-104.395 964.2782,-98.3618 927.9276,-94.2843"/>
<polygon fill="#000000" stroke="#000000" points="928.1272,-90.7846 917.7971,-93.1381 927.3402,-97.7402 928.1272,-90.7846"/>
</g>
<!-- 42&#45;&gt;46 -->
<g id="edge55" class="edge">
<title>42&#45;&gt;46</title>
<path fill="none" stroke="#000000" d="M1878.0573,-150.4527C1873.2106,-148.0851 1868.0046,-145.7768 1863,-144 1793.4944,-119.3227 1772.0801,-127.688 1701,-108 1694.3454,-106.1568 1687.3005,-103.9788 1680.5741,-101.786"/>
<polygon fill="#000000" stroke="#000000" points="1681.6233,-98.4465 1671.0296,-98.6001 1679.4069,-105.0863 1681.6233,-98.4465"/>
</g>
<!-- 50&#45;&gt;48 -->
<g id="edge45" class="edge">
<title>50&#45;&gt;48</title>
<path fill="none" stroke="#000000" d="M1307.7307,-146.7307C1297.803,-136.803 1284.6847,-123.6847 1273.5637,-112.5637"/>
<polygon fill="#000000" stroke="#000000" points="1275.7933,-109.8436 1266.2473,-105.2473 1270.8436,-114.7933 1275.7933,-109.8436"/>
</g>
<!-- 50&#45;&gt;18 -->
<g id="edge46" class="edge">
<title>50&#45;&gt;18</title>
<path fill="none" stroke="#000000" d="M1323,-143.8314C1323,-136.131 1323,-126.9743 1323,-118.4166"/>
<polygon fill="#000000" stroke="#000000" points="1326.5001,-118.4132 1323,-108.4133 1319.5001,-118.4133 1326.5001,-118.4132"/>
</g>
<!-- 50&#45;&gt;51 -->
<g id="edge44" class="edge">
<title>50&#45;&gt;51</title>
<path fill="none" stroke="#000000" d="M1302.6405,-149.9833C1297.6778,-147.5776 1292.2752,-145.371 1287,-144 942.0995,-54.3581 830.9005,-197.6419 486,-108 484.0218,-107.4859 482.0257,-106.8542 480.0416,-106.1386"/>
<polygon fill="#000000" stroke="#000000" points="480.9314,-102.7135 470.3595,-102.0167 478.1894,-109.1541 480.9314,-102.7135"/>
</g>
<!-- 51&#45;&gt;19 -->
<g id="edge166" class="edge">
<title>51&#45;&gt;19</title>
<path fill="none" stroke="#000000" d="M458.7146,-72.5708C462.9597,-64.0807 468.1536,-53.6929 472.8663,-44.2674"/>
<polygon fill="#000000" stroke="#000000" points="476.024,-45.7782 477.3657,-35.2687 469.763,-42.6477 476.024,-45.7782"/>
</g>
<!-- 10 -->
<g id="node28" class="node">
<title>10</title>
<ellipse fill="none" stroke="#000000" cx="1746" cy="-234" rx="27" ry="18"/>
<text text-anchor="middle" x="1746" y="-230.3" font-family="Times,serif" font-size="14.00" fill="#000000">10</text>
</g>
<!-- 10&#45;&gt;8 -->
<g id="edge48" class="edge">
<title>10&#45;&gt;8</title>
<path fill="none" stroke="#000000" d="M1771.8682,-228.221C1808.7394,-219.6241 1878.2296,-202.0827 1935,-180 1936.856,-179.278 1938.745,-178.4937 1940.6365,-177.6699"/>
<polygon fill="#000000" stroke="#000000" points="1942.3836,-180.7175 1949.9754,-173.3272 1939.432,-174.3702 1942.3836,-180.7175"/>
</g>
<!-- 10&#45;&gt;2 -->
<g id="edge50" class="edge">
<title>10&#45;&gt;2</title>
<path fill="none" stroke="#000000" d="M1748.2711,-215.8314C1749.2336,-208.131 1750.3782,-198.9743 1751.4479,-190.4166"/>
<polygon fill="#000000" stroke="#000000" points="1754.9309,-190.7702 1752.6983,-180.4133 1747.9849,-189.9019 1754.9309,-190.7702"/>
</g>
<!-- 10&#45;&gt;42 -->
<g id="edge52" class="edge">
<title>10&#45;&gt;42</title>
<path fill="none" stroke="#000000" d="M1768.5273,-223.855C1792.1588,-213.1538 1830.335,-195.6996 1863,-180 1864.7477,-179.16 1866.5395,-178.2906 1868.3454,-177.4081"/>
<polygon fill="#000000" stroke="#000000" points="1869.935,-180.5267 1877.3519,-172.961 1866.8358,-174.2501 1869.935,-180.5267"/>
</g>
<!-- 11 -->
<g id="node29" class="node">
<title>11</title>
<ellipse fill="none" stroke="#000000" cx="891" cy="-162" rx="27" ry="18"/>
<text text-anchor="middle" x="891" y="-158.3" font-family="Times,serif" font-size="14.00" fill="#000000">11</text>
</g>
<!-- 10&#45;&gt;11 -->
<g id="edge47" class="edge">
<title>10&#45;&gt;11</title>
<path fill="none" stroke="#000000" d="M1721.2512,-226.5314C1707.4728,-222.6988 1689.9332,-218.3521 1674,-216 1345.1784,-167.4575 1248.5614,-264.1326 927,-180 925.0227,-179.4827 923.0272,-178.8485 921.0436,-178.1311"/>
<polygon fill="#000000" stroke="#000000" points="921.9343,-174.7061 911.3627,-174.0043 919.1892,-181.1454 921.9343,-174.7061"/>
</g>
<!-- 14 -->
<g id="node30" class="node">
<title>14</title>
<ellipse fill="none" stroke="#000000" cx="1683" cy="-162" rx="27" ry="18"/>
<text text-anchor="middle" x="1683" y="-158.3" font-family="Times,serif" font-size="14.00" fill="#000000">14</text>
</g>
<!-- 10&#45;&gt;14 -->
<g id="edge49" class="edge">
<title>10&#45;&gt;14</title>
<path fill="none" stroke="#000000" d="M1732.3299,-218.3771C1723.8266,-208.659 1712.7387,-195.987 1703.2292,-185.1191"/>
<polygon fill="#000000" stroke="#000000" points="1705.8625,-182.8135 1696.6434,-177.5924 1700.5944,-187.423 1705.8625,-182.8135"/>
</g>
<!-- 26 -->
<g id="node31" class="node">
<title>26</title>
<ellipse fill="none" stroke="#000000" cx="1467" cy="-162" rx="27" ry="18"/>
<text text-anchor="middle" x="1467" y="-158.3" font-family="Times,serif" font-size="14.00" fill="#000000">26</text>
</g>
<!-- 10&#45;&gt;26 -->
<g id="edge51" class="edge">
<title>10&#45;&gt;26</title>
<path fill="none" stroke="#000000" d="M1720.7317,-227.4368C1706.949,-223.919 1689.5699,-219.5838 1674,-216 1598.3132,-198.5786 1576.3339,-205.5761 1503,-180 1501.1196,-179.3442 1499.2117,-178.6113 1497.3057,-177.8266"/>
<polygon fill="#000000" stroke="#000000" points="1498.4822,-174.5175 1487.9281,-173.5888 1495.5995,-180.8964 1498.4822,-174.5175"/>
</g>
<!-- 11&#45;&gt;3 -->
<g id="edge168" class="edge">
<title>11&#45;&gt;3</title>
<path fill="none" stroke="#000000" d="M875.7307,-146.7307C865.803,-136.803 852.6847,-123.6847 841.5637,-112.5637"/>
<polygon fill="#000000" stroke="#000000" points="843.7933,-109.8436 834.2473,-105.2473 838.8436,-114.7933 843.7933,-109.8436"/>
</g>
<!-- 11&#45;&gt;43 -->
<g id="edge170" class="edge">
<title>11&#45;&gt;43</title>
<path fill="none" stroke="#000000" d="M891,-143.8314C891,-136.131 891,-126.9743 891,-118.4166"/>
<polygon fill="#000000" stroke="#000000" points="894.5001,-118.4132 891,-108.4133 887.5001,-118.4133 894.5001,-118.4132"/>
</g>
<!-- 27 -->
<g id="node34" class="node">
<title>27</title>
<ellipse fill="none" stroke="#000000" cx="522" cy="-90" rx="27" ry="18"/>
<text text-anchor="middle" x="522" y="-86.3" font-family="Times,serif" font-size="14.00" fill="#000000">27</text>
</g>
<!-- 11&#45;&gt;27 -->
<g id="edge169" class="edge">
<title>11&#45;&gt;27</title>
<path fill="none" stroke="#000000" d="M870.1732,-150.0998C865.3205,-147.7506 860.0828,-145.5389 855,-144 731.5388,-106.619 691.908,-140.2179 567,-108 562.7836,-106.9124 558.433,-105.529 554.1747,-104.0138"/>
<polygon fill="#000000" stroke="#000000" points="555.1035,-100.6218 544.513,-100.3163 552.6015,-107.1594 555.1035,-100.6218"/>
</g>
<!-- 15 -->
<g id="node45" class="node">
<title>15</title>
<ellipse fill="none" stroke="#000000" cx="675" cy="-90" rx="27" ry="18"/>
<text text-anchor="middle" x="675" y="-86.3" font-family="Times,serif" font-size="14.00" fill="#000000">15</text>
</g>
<!-- 11&#45;&gt;15 -->
<g id="edge167" class="edge">
<title>11&#45;&gt;15</title>
<path fill="none" stroke="#000000" d="M870.022,-150.5501C865.1771,-148.1775 859.9808,-145.8425 855,-144 793.128,-121.1121 772.872,-130.8879 711,-108 709.1322,-107.3091 707.2341,-106.5489 705.3356,-105.7434"/>
<polygon fill="#000000" stroke="#000000" points="706.5266,-102.4391 695.978,-101.4499 703.6074,-108.8014 706.5266,-102.4391"/>
</g>
<!-- 14&#45;&gt;12 -->
<g id="edge84" class="edge">
<title>14&#45;&gt;12</title>
<path fill="none" stroke="#000000" d="M1663.6918,-149.1278C1646.6445,-137.763 1621.5981,-121.0654 1602.4656,-108.3104"/>
<polygon fill="#000000" stroke="#000000" points="1604.4031,-105.3956 1594.1411,-102.7607 1600.5201,-111.2199 1604.4031,-105.3956"/>
</g>
<!-- 14&#45;&gt;46 -->
<g id="edge85" class="edge">
<title>14&#45;&gt;46</title>
<path fill="none" stroke="#000000" d="M1674.2854,-144.5708C1670.0403,-136.0807 1664.8464,-125.6929 1660.1337,-116.2674"/>
<polygon fill="#000000" stroke="#000000" points="1663.237,-114.6477 1655.6343,-107.2687 1656.976,-117.7782 1663.237,-114.6477"/>
</g>
<!-- 14&#45;&gt;15 -->
<g id="edge83" class="edge">
<title>14&#45;&gt;15</title>
<path fill="none" stroke="#000000" d="M1662.6469,-149.9586C1657.6839,-147.5539 1652.2796,-145.354 1647,-144 1243.7423,-40.5824 1114.2577,-211.4176 711,-108 709.0202,-107.4923 707.0228,-106.8656 705.0377,-106.1537"/>
<polygon fill="#000000" stroke="#000000" points="705.9256,-102.7283 695.3531,-102.0414 703.1897,-109.1715 705.9256,-102.7283"/>
</g>
<!-- 26&#45;&gt;24 -->
<g id="edge57" class="edge">
<title>26&#45;&gt;24</title>
<path fill="none" stroke="#000000" d="M1451.7307,-146.7307C1441.803,-136.803 1428.6847,-123.6847 1417.5637,-112.5637"/>
<polygon fill="#000000" stroke="#000000" points="1419.7933,-109.8436 1410.2473,-105.2473 1414.8436,-114.7933 1419.7933,-109.8436"/>
</g>
<!-- 26&#45;&gt;18 -->
<g id="edge58" class="edge">
<title>26&#45;&gt;18</title>
<path fill="none" stroke="#000000" d="M1445.1295,-151.0647C1420.7778,-138.8889 1381.238,-119.119 1353.7715,-105.3858"/>
<polygon fill="#000000" stroke="#000000" points="1355.114,-102.1439 1344.6045,-100.8022 1351.9835,-108.4049 1355.114,-102.1439"/>
</g>
<!-- 26&#45;&gt;27 -->
<g id="edge56" class="edge">
<title>26&#45;&gt;27</title>
<path fill="none" stroke="#000000" d="M1446.6438,-149.9708C1441.6809,-147.5656 1436.2774,-145.3624 1431,-144 1058.8676,-47.9298 942.8034,-188.5219 567,-108 562.5288,-107.042 557.9281,-105.6796 553.4543,-104.1276"/>
<polygon fill="#000000" stroke="#000000" points="554.5537,-100.8011 543.9628,-100.5108 552.0611,-107.3423 554.5537,-100.8011"/>
</g>
<!-- 43&#45;&gt;47 -->
<g id="edge171" class="edge">
<title>43&#45;&gt;47</title>
<path fill="none" stroke="#000000" d="M869.4722,-78.7766C864.7475,-76.4429 859.7399,-74.0669 855,-72 814.7169,-54.4338 766.707,-37.1334 737.5583,-27.0185"/>
<polygon fill="#000000" stroke="#000000" points="738.6729,-23.7006 728.0782,-23.7517 736.3923,-30.3187 738.6729,-23.7006"/>
</g>
<!-- 46&#45;&gt;44 -->
<g id="edge87" class="edge">
<title>46&#45;&gt;44</title>
<path fill="none" stroke="#000000" d="M1627.6918,-77.1278C1609.487,-64.9913 1582.1599,-46.7732 1562.6544,-33.7696"/>
<polygon fill="#000000" stroke="#000000" points="1564.5656,-30.8373 1554.3036,-28.2024 1560.6827,-36.6616 1564.5656,-30.8373"/>
</g>
<!-- 46&#45;&gt;47 -->
<g id="edge86" class="edge">
<title>46&#45;&gt;47</title>
<path fill="none" stroke="#000000" d="M1626.6254,-78.0407C1621.6633,-75.6327 1616.2647,-73.4106 1611,-72 1525.1635,-49.0012 883.4421,-24.3144 739.5683,-19.0309"/>
<polygon fill="#000000" stroke="#000000" points="739.4771,-15.5254 729.356,-18.6579 739.2215,-22.5207 739.4771,-15.5254"/>
</g>
<!-- 27&#45;&gt;19 -->
<g id="edge172" class="edge">
<title>27&#45;&gt;19</title>
<path fill="none" stroke="#000000" d="M513.2854,-72.5708C509.0403,-64.0807 503.8464,-53.6929 499.1337,-44.2674"/>
<polygon fill="#000000" stroke="#000000" points="502.237,-42.6477 494.6343,-35.2687 495.976,-45.7782 502.237,-42.6477"/>
</g>
<!-- 58 -->
<g id="node35" class="node">
<title>58</title>
<ellipse fill="none" stroke="#000000" cx="1359" cy="-234" rx="27" ry="18"/>
<text text-anchor="middle" x="1359" y="-230.3" font-family="Times,serif" font-size="14.00" fill="#000000">58</text>
</g>
<!-- 58&#45;&gt;56 -->
<g id="edge60" class="edge">
<title>58&#45;&gt;56</title>
<path fill="none" stroke="#000000" d="M1367.7146,-216.5708C1371.9597,-208.0807 1377.1536,-197.6929 1381.8663,-188.2674"/>
<polygon fill="#000000" stroke="#000000" points="1385.024,-189.7782 1386.3657,-179.2687 1378.763,-186.6477 1385.024,-189.7782"/>
</g>
<!-- 58&#45;&gt;42 -->
<g id="edge63" class="edge">
<title>58&#45;&gt;42</title>
<path fill="none" stroke="#000000" d="M1385.7954,-230.7251C1416.3295,-227.0218 1467.7359,-220.8735 1512,-216 1667.8765,-198.8381 1712.4164,-223.7786 1863,-180 1865.1262,-179.3819 1867.2776,-178.641 1869.4154,-177.8172"/>
<polygon fill="#000000" stroke="#000000" points="1870.8278,-181.0196 1878.5804,-173.7984 1868.0166,-174.6089 1870.8278,-181.0196"/>
</g>
<!-- 58&#45;&gt;50 -->
<g id="edge62" class="edge">
<title>58&#45;&gt;50</title>
<path fill="none" stroke="#000000" d="M1350.2854,-216.5708C1346.0403,-208.0807 1340.8464,-197.6929 1336.1337,-188.2674"/>
<polygon fill="#000000" stroke="#000000" points="1339.237,-186.6477 1331.6343,-179.2687 1332.976,-189.7782 1339.237,-186.6477"/>
</g>
<!-- 58&#45;&gt;26 -->
<g id="edge64" class="edge">
<title>58&#45;&gt;26</title>
<path fill="none" stroke="#000000" d="M1378.3082,-221.1278C1395.3555,-209.763 1420.4019,-193.0654 1439.5344,-180.3104"/>
<polygon fill="#000000" stroke="#000000" points="1441.4799,-183.2199 1447.8589,-174.7607 1437.5969,-177.3956 1441.4799,-183.2199"/>
</g>
<!-- 59 -->
<g id="node36" class="node">
<title>59</title>
<ellipse fill="none" stroke="#000000" cx="387" cy="-162" rx="27" ry="18"/>
<text text-anchor="middle" x="387" y="-158.3" font-family="Times,serif" font-size="14.00" fill="#000000">59</text>
</g>
<!-- 58&#45;&gt;59 -->
<g id="edge59" class="edge">
<title>58&#45;&gt;59</title>
<path fill="none" stroke="#000000" d="M1332.933,-228.7404C1311.1336,-224.5626 1279.1689,-218.9487 1251,-216 1067.827,-196.8255 601.2855,-226.1984 423,-180 421.0214,-179.4873 419.025,-178.8568 417.0407,-178.142"/>
<polygon fill="#000000" stroke="#000000" points="417.9301,-174.7169 407.358,-174.0223 415.1894,-181.1581 417.9301,-174.7169"/>
</g>
<!-- 62 -->
<g id="node37" class="node">
<title>62</title>
<ellipse fill="none" stroke="#000000" cx="1251" cy="-162" rx="27" ry="18"/>
<text text-anchor="middle" x="1251" y="-158.3" font-family="Times,serif" font-size="14.00" fill="#000000">62</text>
</g>
<!-- 58&#45;&gt;62 -->
<g id="edge61" class="edge">
<title>58&#45;&gt;62</title>
<path fill="none" stroke="#000000" d="M1339.6918,-221.1278C1322.6445,-209.763 1297.5981,-193.0654 1278.4656,-180.3104"/>
<polygon fill="#000000" stroke="#000000" points="1280.4031,-177.3956 1270.1411,-174.7607 1276.5201,-183.2199 1280.4031,-177.3956"/>
</g>
<!-- 59&#45;&gt;51 -->
<g id="edge174" class="edge">
<title>59&#45;&gt;51</title>
<path fill="none" stroke="#000000" d="M400.6701,-146.3771C409.1734,-136.659 420.2613,-123.987 429.7708,-113.1191"/>
<polygon fill="#000000" stroke="#000000" points="432.4056,-115.423 436.3566,-105.5924 427.1375,-110.8135 432.4056,-115.423"/>
</g>
<!-- 59&#45;&gt;43 -->
<g id="edge175" class="edge">
<title>59&#45;&gt;43</title>
<path fill="none" stroke="#000000" d="M407.3989,-150.1292C412.36,-147.7175 417.752,-145.4716 423,-144 608.5099,-91.9801 669.4901,-160.0199 855,-108 857.132,-107.4022 859.2878,-106.6765 861.4288,-105.8639"/>
<polygon fill="#000000" stroke="#000000" points="862.8294,-109.0715 870.6011,-101.8708 860.0352,-102.6533 862.8294,-109.0715"/>
</g>
<!-- 59&#45;&gt;27 -->
<g id="edge176" class="edge">
<title>59&#45;&gt;27</title>
<path fill="none" stroke="#000000" d="M408.0938,-150.75C430.5496,-138.7735 466.2866,-119.7138 491.7401,-106.1386"/>
<polygon fill="#000000" stroke="#000000" points="493.4324,-109.2028 500.6088,-101.4086 490.1382,-103.0263 493.4324,-109.2028"/>
</g>
<!-- 63 -->
<g id="node48" class="node">
<title>63</title>
<ellipse fill="none" stroke="#000000" cx="288" cy="-90" rx="27" ry="18"/>
<text text-anchor="middle" x="288" y="-86.3" font-family="Times,serif" font-size="14.00" fill="#000000">63</text>
</g>
<!-- 59&#45;&gt;63 -->
<g id="edge173" class="edge">
<title>59&#45;&gt;63</title>
<path fill="none" stroke="#000000" d="M368.3789,-148.4574C353.3065,-137.4956 331.8746,-121.9088 314.9313,-109.5864"/>
<polygon fill="#000000" stroke="#000000" points="316.6836,-106.5331 306.5376,-103.4819 312.5664,-112.1943 316.6836,-106.5331"/>
</g>
<!-- 62&#45;&gt;60 -->
<g id="edge95" class="edge">
<title>62&#45;&gt;60</title>
<path fill="none" stroke="#000000" d="M1235.7307,-146.7307C1225.803,-136.803 1212.6847,-123.6847 1201.5637,-112.5637"/>
<polygon fill="#000000" stroke="#000000" points="1203.7933,-109.8436 1194.2473,-105.2473 1198.8436,-114.7933 1203.7933,-109.8436"/>
</g>
<!-- 62&#45;&gt;46 -->
<g id="edge96" class="edge">
<title>62&#45;&gt;46</title>
<path fill="none" stroke="#000000" d="M1271.8113,-150.0481C1276.6648,-147.7016 1281.9068,-145.5041 1287,-144 1425.9537,-102.965 1472.0463,-149.035 1611,-108 1612.91,-107.436 1614.8408,-106.7744 1616.7643,-106.0441"/>
<polygon fill="#000000" stroke="#000000" points="1618.4101,-109.1452 1626.1887,-101.9519 1615.6221,-102.7244 1618.4101,-109.1452"/>
</g>
<!-- 62&#45;&gt;63 -->
<g id="edge94" class="edge">
<title>62&#45;&gt;63</title>
<path fill="none" stroke="#000000" d="M1230.6442,-149.9692C1225.6813,-147.5641 1220.2777,-145.3613 1215,-144 1026.9886,-95.5057 532.9762,-143.0444 342,-108 335.0777,-106.7297 327.8276,-104.7732 320.9679,-102.6104"/>
<polygon fill="#000000" stroke="#000000" points="321.8747,-99.2228 311.2806,-99.3502 319.6419,-105.8571 321.8747,-99.2228"/>
</g>
<!-- 6 -->
<g id="node38" class="node">
<title>6</title>
<ellipse fill="none" stroke="#000000" cx="1548" cy="-234" rx="27" ry="18"/>
<text text-anchor="middle" x="1548" y="-230.3" font-family="Times,serif" font-size="14.00" fill="#000000">6</text>
</g>
<!-- 6&#45;&gt;4 -->
<g id="edge66" class="edge">
<title>6&#45;&gt;4</title>
<path fill="none" stroke="#000000" d="M1561.6701,-218.3771C1570.1734,-208.659 1581.2613,-195.987 1590.7708,-185.1191"/>
<polygon fill="#000000" stroke="#000000" points="1593.4056,-187.423 1597.3566,-177.5924 1588.1375,-182.8135 1593.4056,-187.423"/>
</g>
<!-- 6&#45;&gt;2 -->
<g id="edge67" class="edge">
<title>6&#45;&gt;2</title>
<path fill="none" stroke="#000000" d="M1572.1537,-225.8156C1581.4657,-222.6952 1592.2129,-219.1364 1602,-216 1653.8105,-199.3966 1668.4969,-200.2345 1719,-180 1720.8,-179.2788 1722.6328,-178.5025 1724.47,-177.6914"/>
<polygon fill="#000000" stroke="#000000" points="1725.986,-180.8464 1733.5633,-173.4414 1723.022,-174.5048 1725.986,-180.8464"/>
</g>
<!-- 6&#45;&gt;38 -->
<g id="edge70" class="edge">
<title>6&#45;&gt;38</title>
<path fill="none" stroke="#000000" d="M1545.7289,-215.8314C1544.7664,-208.131 1543.6218,-198.9743 1542.5521,-190.4166"/>
<polygon fill="#000000" stroke="#000000" points="1546.0151,-189.9019 1541.3017,-180.4133 1539.0691,-190.7702 1546.0151,-189.9019"/>
</g>
<!-- 6&#45;&gt;14 -->
<g id="edge68" class="edge">
<title>6&#45;&gt;14</title>
<path fill="none" stroke="#000000" d="M1569.0938,-222.75C1591.5496,-210.7735 1627.2866,-191.7138 1652.7401,-178.1386"/>
<polygon fill="#000000" stroke="#000000" points="1654.4324,-181.2028 1661.6088,-173.4086 1651.1382,-175.0263 1654.4324,-181.2028"/>
</g>
<!-- 7 -->
<g id="node39" class="node">
<title>7</title>
<ellipse fill="none" stroke="#000000" cx="531" cy="-162" rx="27" ry="18"/>
<text text-anchor="middle" x="531" y="-158.3" font-family="Times,serif" font-size="14.00" fill="#000000">7</text>
</g>
<!-- 6&#45;&gt;7 -->
<g id="edge65" class="edge">
<title>6&#45;&gt;7</title>
<path fill="none" stroke="#000000" d="M1521.5242,-230.2848C1491.0658,-226.1505 1439.5215,-219.5819 1395,-216 1211.4193,-201.2304 745.2855,-226.1984 567,-180 565.0214,-179.4873 563.025,-178.8568 561.0407,-178.142"/>
<polygon fill="#000000" stroke="#000000" points="561.9301,-174.7169 551.358,-174.0223 559.1894,-181.1581 561.9301,-174.7169"/>
</g>
<!-- 22 -->
<g id="node40" class="node">
<title>22</title>
<ellipse fill="none" stroke="#000000" cx="1035" cy="-162" rx="27" ry="18"/>
<text text-anchor="middle" x="1035" y="-158.3" font-family="Times,serif" font-size="14.00" fill="#000000">22</text>
</g>
<!-- 6&#45;&gt;22 -->
<g id="edge69" class="edge">
<title>6&#45;&gt;22</title>
<path fill="none" stroke="#000000" d="M1521.1969,-230.7937C1490.6558,-227.1525 1439.2431,-221.0604 1395,-216 1251.0524,-199.5356 1209.9537,-221.035 1071,-180 1069.09,-179.436 1067.1592,-178.7744 1065.2357,-178.0441"/>
<polygon fill="#000000" stroke="#000000" points="1066.3779,-174.7244 1055.8113,-173.9519 1063.5899,-181.1452 1066.3779,-174.7244"/>
</g>
<!-- 7&#45;&gt;3 -->
<g id="edge177" class="edge">
<title>7&#45;&gt;3</title>
<path fill="none" stroke="#000000" d="M551.8749,-150.2531C556.7251,-147.8959 561.9497,-145.6423 567,-144 659.5536,-113.9031 690.4464,-138.0969 783,-108 784.8939,-107.3841 786.8123,-106.6823 788.7262,-105.9213"/>
<polygon fill="#000000" stroke="#000000" points="790.4066,-109.0047 798.1251,-101.7469 787.5653,-102.6073 790.4066,-109.0047"/>
</g>
<!-- 7&#45;&gt;39 -->
<g id="edge180" class="edge">
<title>7&#45;&gt;39</title>
<path fill="none" stroke="#000000" d="M546.2693,-146.7307C556.197,-136.803 569.3153,-123.6847 580.4363,-112.5637"/>
<polygon fill="#000000" stroke="#000000" points="583.1564,-114.7933 587.7527,-105.2473 578.2067,-109.8436 583.1564,-114.7933"/>
</g>
<!-- 23 -->
<g id="node42" class="node">
<title>23</title>
<ellipse fill="none" stroke="#000000" cx="180" cy="-90" rx="27" ry="18"/>
<text text-anchor="middle" x="180" y="-86.3" font-family="Times,serif" font-size="14.00" fill="#000000">23</text>
</g>
<!-- 7&#45;&gt;23 -->
<g id="edge179" class="edge">
<title>7&#45;&gt;23</title>
<path fill="none" stroke="#000000" d="M510.1468,-150.1853C505.2955,-147.8316 500.065,-145.5966 495,-144 390.8721,-111.1766 359.0877,-129.2653 252,-108 239.8794,-105.5931 226.7352,-102.4633 215.0354,-99.4901"/>
<polygon fill="#000000" stroke="#000000" points="215.7458,-96.0586 205.1876,-96.9396 213.9907,-102.8351 215.7458,-96.0586"/>
</g>
<!-- 7&#45;&gt;15 -->
<g id="edge178" class="edge">
<title>7&#45;&gt;15</title>
<path fill="none" stroke="#000000" d="M552.8705,-151.0647C577.2222,-138.8889 616.762,-119.119 644.2285,-105.3858"/>
<polygon fill="#000000" stroke="#000000" points="646.0165,-108.4049 653.3955,-100.8022 642.886,-102.1439 646.0165,-108.4049"/>
</g>
<!-- 22&#45;&gt;20 -->
<g id="edge75" class="edge">
<title>22&#45;&gt;20</title>
<path fill="none" stroke="#000000" d="M1050.2693,-146.7307C1060.197,-136.803 1073.3153,-123.6847 1084.4363,-112.5637"/>
<polygon fill="#000000" stroke="#000000" points="1087.1564,-114.7933 1091.7527,-105.2473 1082.2067,-109.8436 1087.1564,-114.7933"/>
</g>
<!-- 22&#45;&gt;18 -->
<g id="edge76" class="edge">
<title>22&#45;&gt;18</title>
<path fill="none" stroke="#000000" d="M1055.8749,-150.2531C1060.7251,-147.8959 1065.9497,-145.6423 1071,-144 1163.5536,-113.9031 1194.4464,-138.0969 1287,-108 1288.8939,-107.3841 1290.8123,-106.6823 1292.7262,-105.9213"/>
<polygon fill="#000000" stroke="#000000" points="1294.4066,-109.0047 1302.1251,-101.7469 1291.5653,-102.6073 1294.4066,-109.0047"/>
</g>
<!-- 22&#45;&gt;23 -->
<g id="edge74" class="edge">
<title>22&#45;&gt;23</title>
<path fill="none" stroke="#000000" d="M1014.6373,-149.9957C1009.6747,-147.5895 1004.2729,-145.3796 999,-144 677.4386,-59.8674 580.8216,-156.5425 252,-108 239.6767,-106.1808 226.3924,-103.1684 214.6306,-100.1235"/>
<polygon fill="#000000" stroke="#000000" points="215.3145,-96.6832 204.7488,-97.4686 213.4981,-103.4435 215.3145,-96.6832"/>
</g>
<!-- 39&#45;&gt;47 -->
<g id="edge181" class="edge">
<title>39&#45;&gt;47</title>
<path fill="none" stroke="#000000" d="M622.3082,-77.1278C640.513,-64.9913 667.8401,-46.7732 687.3456,-33.7696"/>
<polygon fill="#000000" stroke="#000000" points="689.3173,-36.6616 695.6964,-28.2024 685.4344,-30.8373 689.3173,-36.6616"/>
</g>
<!-- 23&#45;&gt;19 -->
<g id="edge182" class="edge">
<title>23&#45;&gt;19</title>
<path fill="none" stroke="#000000" d="M205.2965,-83.5565C219.0874,-80.0738 236.4654,-75.7339 252,-72 322.2877,-55.1054 404.7063,-36.3248 450.5808,-25.963"/>
<polygon fill="#000000" stroke="#000000" points="451.3567,-29.376 460.3412,-23.7609 449.816,-22.5476 451.3567,-29.376"/>
</g>
<!-- 54 -->
<g id="node43" class="node">
<title>54</title>
<ellipse fill="none" stroke="#000000" cx="1125" cy="-234" rx="27" ry="18"/>
<text text-anchor="middle" x="1125" y="-230.3" font-family="Times,serif" font-size="14.00" fill="#000000">54</text>
</g>
<!-- 54&#45;&gt;52 -->
<g id="edge78" class="edge">
<title>54&#45;&gt;52</title>
<path fill="none" stroke="#000000" d="M1120.5506,-216.2022C1118.5602,-208.2406 1116.1668,-198.6671 1113.9489,-189.7957"/>
<polygon fill="#000000" stroke="#000000" points="1117.2816,-188.6951 1111.4606,-179.8425 1110.4906,-190.3929 1117.2816,-188.6951"/>
</g>
<!-- 54&#45;&gt;38 -->
<g id="edge81" class="edge">
<title>54&#45;&gt;38</title>
<path fill="none" stroke="#000000" d="M1148.621,-224.9236C1157.96,-221.654 1168.8653,-218.2259 1179,-216 1320.513,-184.9185 1364.0463,-221.035 1503,-180 1504.91,-179.436 1506.8408,-178.7744 1508.7643,-178.0441"/>
<polygon fill="#000000" stroke="#000000" points="1510.4101,-181.1452 1518.1887,-173.9519 1507.6221,-174.7244 1510.4101,-181.1452"/>
</g>
<!-- 54&#45;&gt;50 -->
<g id="edge79" class="edge">
<title>54&#45;&gt;50</title>
<path fill="none" stroke="#000000" d="M1149.216,-225.931C1194.3445,-210.8933 1286.793,-180.0858 1287,-180 1288.7915,-179.2579 1290.6176,-178.4653 1292.4498,-177.6416"/>
<polygon fill="#000000" stroke="#000000" points="1293.9792,-180.7901 1301.5289,-173.357 1290.9916,-174.4596 1293.9792,-180.7901"/>
</g>
<!-- 54&#45;&gt;62 -->
<g id="edge80" class="edge">
<title>54&#45;&gt;62</title>
<path fill="none" stroke="#000000" d="M1145.5245,-222.2717C1166.2092,-210.4519 1198.3287,-192.0979 1221.6909,-178.7481"/>
<polygon fill="#000000" stroke="#000000" points="1223.5383,-181.7236 1230.4843,-173.7233 1220.0653,-175.6459 1223.5383,-181.7236"/>
</g>
<!-- 54&#45;&gt;22 -->
<g id="edge82" class="edge">
<title>54&#45;&gt;22</title>
<path fill="none" stroke="#000000" d="M1107.6471,-220.1177C1094.2003,-209.3602 1075.3761,-194.3009 1060.259,-182.2072"/>
<polygon fill="#000000" stroke="#000000" points="1062.2948,-179.3536 1052.2996,-175.8397 1057.9219,-184.8197 1062.2948,-179.3536"/>
</g>
<!-- 55 -->
<g id="node44" class="node">
<title>55</title>
<ellipse fill="none" stroke="#000000" cx="27" cy="-162" rx="27" ry="18"/>
<text text-anchor="middle" x="27" y="-158.3" font-family="Times,serif" font-size="14.00" fill="#000000">55</text>
</g>
<!-- 54&#45;&gt;55 -->
<g id="edge77" class="edge">
<title>54&#45;&gt;55</title>
<path fill="none" stroke="#000000" d="M1097.9962,-231.6288C1054.4588,-227.8721 966.0388,-220.5161 891,-216 707.1588,-204.9357 241.2855,-226.1984 63,-180 61.0214,-179.4873 59.025,-178.8568 57.0407,-178.142"/>
<polygon fill="#000000" stroke="#000000" points="57.9301,-174.7169 47.358,-174.0223 55.1894,-181.1581 57.9301,-174.7169"/>
</g>
<!-- 55&#45;&gt;51 -->
<g id="edge183" class="edge">
<title>55&#45;&gt;51</title>
<path fill="none" stroke="#000000" d="M47.4196,-150.2016C52.3798,-147.787 57.7663,-145.5216 63,-144 213.5836,-100.2214 263.4164,-151.7786 414,-108 416.1262,-107.3819 418.2776,-106.641 420.4154,-105.8172"/>
<polygon fill="#000000" stroke="#000000" points="421.8278,-109.0196 429.5804,-101.7984 419.0166,-102.6089 421.8278,-109.0196"/>
</g>
<!-- 55&#45;&gt;39 -->
<g id="edge185" class="edge">
<title>55&#45;&gt;39</title>
<path fill="none" stroke="#000000" d="M47.3877,-150.089C52.3493,-147.679 57.7443,-145.4439 63,-144 275.6996,-85.5631 343.0556,-157.5469 558,-108 562.2431,-107.0219 566.6097,-105.7037 570.8763,-104.2229"/>
<polygon fill="#000000" stroke="#000000" points="572.4364,-107.3745 580.5455,-100.5559 569.9542,-100.8294 572.4364,-107.3745"/>
</g>
<!-- 55&#45;&gt;23 -->
<g id="edge186" class="edge">
<title>55&#45;&gt;23</title>
<path fill="none" stroke="#000000" d="M48.6481,-151.039C53.3652,-148.689 58.3394,-146.24 63,-144 91.7095,-130.2015 124.6762,-115.0477 148.2836,-104.3145"/>
<polygon fill="#000000" stroke="#000000" points="149.8125,-107.4643 157.4727,-100.145 146.9201,-101.0898 149.8125,-107.4643"/>
</g>
<!-- 55&#45;&gt;63 -->
<g id="edge184" class="edge">
<title>55&#45;&gt;63</title>
<path fill="none" stroke="#000000" d="M47.9592,-150.4987C52.8051,-148.1288 58.0065,-145.8079 63,-144 128.6845,-120.2189 148.1127,-124.4718 216,-108 228.0088,-105.0862 241.125,-101.8294 252.8335,-98.8954"/>
<polygon fill="#000000" stroke="#000000" points="253.8516,-102.2485 262.6971,-96.4169 252.1456,-95.4595 253.8516,-102.2485"/>
</g>
<!-- 15&#45;&gt;47 -->
<g id="edge187" class="edge">
<title>15&#45;&gt;47</title>
<path fill="none" stroke="#000000" d="M683.7146,-72.5708C688.0845,-63.831 693.4599,-53.0802 698.2808,-43.4383"/>
<polygon fill="#000000" stroke="#000000" points="701.5175,-44.7912 702.8592,-34.2817 695.2565,-41.6607 701.5175,-44.7912"/>
</g>
<!-- 30 -->
<g id="node46" class="node">
<title>30</title>
<ellipse fill="none" stroke="#000000" cx="1215" cy="-234" rx="27" ry="18"/>
<text text-anchor="middle" x="1215" y="-230.3" font-family="Times,serif" font-size="14.00" fill="#000000">30</text>
</g>
<!-- 30&#45;&gt;28 -->
<g id="edge89" class="edge">
<title>30&#45;&gt;28</title>
<path fill="none" stroke="#000000" d="M1206.2854,-216.5708C1202.0403,-208.0807 1196.8464,-197.6929 1192.1337,-188.2674"/>
<polygon fill="#000000" stroke="#000000" points="1195.237,-186.6477 1187.6343,-179.2687 1188.976,-189.7782 1195.237,-186.6477"/>
</g>
<!-- 30&#45;&gt;14 -->
<g id="edge92" class="edge">
<title>30&#45;&gt;14</title>
<path fill="none" stroke="#000000" d="M1241.1273,-229.2355C1262.9625,-225.3524 1294.946,-219.8934 1323,-216 1466.5107,-196.083 1508.0463,-221.035 1647,-180 1648.91,-179.436 1650.8408,-178.7744 1652.7643,-178.0441"/>
<polygon fill="#000000" stroke="#000000" points="1654.4101,-181.1452 1662.1887,-173.9519 1651.6221,-174.7244 1654.4101,-181.1452"/>
</g>
<!-- 30&#45;&gt;26 -->
<g id="edge90" class="edge">
<title>30&#45;&gt;26</title>
<path fill="none" stroke="#000000" d="M1241.1532,-229.3813C1282.3398,-221.6838 1364.4755,-204.609 1431,-180 1432.8678,-179.3091 1434.7659,-178.5489 1436.6644,-177.7434"/>
<polygon fill="#000000" stroke="#000000" points="1438.3926,-180.8014 1446.022,-173.4499 1435.4734,-174.4391 1438.3926,-180.8014"/>
</g>
<!-- 30&#45;&gt;62 -->
<g id="edge93" class="edge">
<title>30&#45;&gt;62</title>
<path fill="none" stroke="#000000" d="M1223.7146,-216.5708C1227.9597,-208.0807 1233.1536,-197.6929 1237.8663,-188.2674"/>
<polygon fill="#000000" stroke="#000000" points="1241.024,-189.7782 1242.3657,-179.2687 1234.763,-186.6477 1241.024,-189.7782"/>
</g>
<!-- 30&#45;&gt;22 -->
<g id="edge91" class="edge">
<title>30&#45;&gt;22</title>
<path fill="none" stroke="#000000" d="M1190.7416,-225.7783C1161.869,-215.7927 1112.3615,-198.0365 1071,-180 1069.2226,-179.2249 1067.4074,-178.4064 1065.5837,-177.5629"/>
<polygon fill="#000000" stroke="#000000" points="1067.0584,-174.3885 1056.5278,-173.2234 1064.0334,-180.7011 1067.0584,-174.3885"/>
</g>
<!-- 31 -->
<g id="node47" class="node">
<title>31</title>
<ellipse fill="none" stroke="#000000" cx="171" cy="-162" rx="27" ry="18"/>
<text text-anchor="middle" x="171" y="-158.3" font-family="Times,serif" font-size="14.00" fill="#000000">31</text>
</g>
<!-- 30&#45;&gt;31 -->
<g id="edge88" class="edge">
<title>30&#45;&gt;31</title>
<path fill="none" stroke="#000000" d="M1191.7228,-224.6313C1182.3359,-221.2805 1171.3063,-217.8726 1161,-216 952.2666,-178.0742 412.5197,-232.6273 207,-180 205.02,-179.493 203.0225,-178.8668 201.0373,-178.1554"/>
<polygon fill="#000000" stroke="#000000" points="201.925,-174.73 191.3524,-174.0442 199.1897,-181.1735 201.925,-174.73"/>
</g>
<!-- 31&#45;&gt;27 -->
<g id="edge188" class="edge">
<title>31&#45;&gt;27</title>
<path fill="none" stroke="#000000" d="M191.8313,-150.1148C196.6838,-147.7647 201.9203,-145.549 207,-144 326.5912,-107.5315 366.4088,-144.4685 486,-108 487.9049,-107.4191 489.8318,-106.7445 491.7523,-106.0042"/>
<polygon fill="#000000" stroke="#000000" points="493.4095,-109.0995 501.1687,-101.8852 490.6042,-102.6862 493.4095,-109.0995"/>
</g>
<!-- 31&#45;&gt;23 -->
<g id="edge189" class="edge">
<title>31&#45;&gt;23</title>
<path fill="none" stroke="#000000" d="M173.2711,-143.8314C174.2336,-136.131 175.3782,-126.9743 176.4479,-118.4166"/>
<polygon fill="#000000" stroke="#000000" points="179.9309,-118.7702 177.6983,-108.4133 172.9849,-117.9019 179.9309,-118.7702"/>
</g>
<!-- 31&#45;&gt;15 -->
<g id="edge190" class="edge">
<title>31&#45;&gt;15</title>
<path fill="none" stroke="#000000" d="M191.3989,-150.1292C196.36,-147.7175 201.752,-145.4716 207,-144 392.5099,-91.9801 453.4901,-160.0199 639,-108 641.132,-107.4022 643.2878,-106.6765 645.4288,-105.8639"/>
<polygon fill="#000000" stroke="#000000" points="646.8294,-109.0715 654.6011,-101.8708 644.0352,-102.6533 646.8294,-109.0715"/>
</g>
<!-- 31&#45;&gt;63 -->
<g id="edge191" class="edge">
<title>31&#45;&gt;63</title>
<path fill="none" stroke="#000000" d="M190.8475,-149.7862C209.673,-138.2013 238.1646,-120.6679 259.4321,-107.5803"/>
<polygon fill="#000000" stroke="#000000" points="261.3729,-110.4956 268.0552,-102.2737 257.7042,-104.5339 261.3729,-110.4956"/>
</g>
<!-- 63&#45;&gt;47 -->
<g id="edge192" class="edge">
<title>63&#45;&gt;47</title>
<path fill="none" stroke="#000000" d="M311.6628,-81.1066C321.0072,-77.8608 331.9054,-74.4012 342,-72 467.0785,-42.2475 620.1388,-26.1609 682.5109,-20.4411"/>
<polygon fill="#000000" stroke="#000000" points="683.0925,-23.903 692.7392,-19.5222 682.4661,-16.9311 683.0925,-23.903"/>
</g>
<!-- 1 -->
<g id="node49" class="node">
<title>1</title>
<ellipse fill="none" stroke="#000000" cx="747" cy="-162" rx="27" ry="18"/>
<text text-anchor="middle" x="747" y="-158.3" font-family="Times,serif" font-size="14.00" fill="#000000">1</text>
</g>
<!-- 1&#45;&gt;0 -->
<g id="edge97" class="edge">
<title>1&#45;&gt;0</title>
<path fill="none" stroke="#000000" d="M767.3546,-149.9644C772.3175,-147.5595 777.7215,-145.358 783,-144 976.8473,-94.1281 1486.105,-144.0048 1683,-108 1689.9231,-106.734 1697.1735,-104.7793 1704.0333,-102.6171"/>
<polygon fill="#000000" stroke="#000000" points="1705.3594,-105.8638 1713.7206,-99.3567 1703.1265,-99.2294 1705.3594,-105.8638"/>
</g>
<!-- 1&#45;&gt;3 -->
<g id="edge98" class="edge">
<title>1&#45;&gt;3</title>
<path fill="none" stroke="#000000" d="M762.2693,-146.7307C772.197,-136.803 785.3153,-123.6847 796.4363,-112.5637"/>
<polygon fill="#000000" stroke="#000000" points="799.1564,-114.7933 803.7527,-105.2473 794.2067,-109.8436 799.1564,-114.7933"/>
</g>
<!-- 17 -->
<g id="node50" class="node">
<title>17</title>
<ellipse fill="none" stroke="#000000" cx="378" cy="-90" rx="27" ry="18"/>
<text text-anchor="middle" x="378" y="-86.3" font-family="Times,serif" font-size="14.00" fill="#000000">17</text>
</g>
<!-- 1&#45;&gt;17 -->
<g id="edge99" class="edge">
<title>1&#45;&gt;17</title>
<path fill="none" stroke="#000000" d="M726.1775,-150.0858C721.3246,-147.7372 716.0857,-145.5295 711,-144 583.6675,-105.706 541.3325,-146.294 414,-108 412.0929,-107.4265 410.1642,-106.7575 408.2424,-106.0215"/>
<polygon fill="#000000" stroke="#000000" points="409.388,-102.7028 398.8225,-101.9142 406.5901,-109.1194 409.388,-102.7028"/>
</g>
<!-- 17&#45;&gt;16 -->
<g id="edge106" class="edge">
<title>17&#45;&gt;16</title>
<path fill="none" stroke="#000000" d="M398.3765,-78.0478C403.3385,-75.6394 408.7366,-73.4155 414,-72 495.4397,-50.0986 1092.9104,-25.5453 1249.509,-19.4343"/>
<polygon fill="#000000" stroke="#000000" points="1249.737,-22.9281 1259.5936,-19.0425 1249.4652,-15.9334 1249.737,-22.9281"/>
</g>
<!-- 17&#45;&gt;19 -->
<g id="edge107" class="edge">
<title>17&#45;&gt;19</title>
<path fill="none" stroke="#000000" d="M397.3082,-77.1278C414.3555,-65.763 439.4019,-49.0654 458.5344,-36.3104"/>
<polygon fill="#000000" stroke="#000000" points="460.4799,-39.2199 466.8589,-30.7607 456.5969,-33.3956 460.4799,-39.2199"/>
</g>
<!-- 33 -->
<g id="node51" class="node">
<title>33</title>
<ellipse fill="none" stroke="#000000" cx="783" cy="-234" rx="27" ry="18"/>
<text text-anchor="middle" x="783" y="-230.3" font-family="Times,serif" font-size="14.00" fill="#000000">33</text>
</g>
<!-- 33&#45;&gt;32 -->
<g id="edge100" class="edge">
<title>33&#45;&gt;32</title>
<path fill="none" stroke="#000000" d="M803.3517,-221.9531C808.3147,-219.5487 813.7195,-217.3502 819,-216 1237.8214,-108.9084 1372.1786,-287.0916 1791,-180 1792.9802,-179.4937 1794.9779,-178.8681 1796.9632,-178.157"/>
<polygon fill="#000000" stroke="#000000" points="1798.8102,-181.1754 1806.6483,-174.0469 1796.0756,-174.7316 1798.8102,-181.1754"/>
</g>
<!-- 33&#45;&gt;35 -->
<g id="edge101" class="edge">
<title>33&#45;&gt;35</title>
<path fill="none" stroke="#000000" d="M791.7146,-216.5708C795.9597,-208.0807 801.1536,-197.6929 805.8663,-188.2674"/>
<polygon fill="#000000" stroke="#000000" points="809.024,-189.7782 810.3657,-179.2687 802.763,-186.6477 809.024,-189.7782"/>
</g>
<!-- 33&#45;&gt;1 -->
<g id="edge105" class="edge">
<title>33&#45;&gt;1</title>
<path fill="none" stroke="#000000" d="M774.2854,-216.5708C770.0403,-208.0807 764.8464,-197.6929 760.1337,-188.2674"/>
<polygon fill="#000000" stroke="#000000" points="763.237,-186.6477 755.6343,-179.2687 756.976,-189.7782 763.237,-186.6477"/>
</g>
<!-- 37 -->
<g id="node52" class="node">
<title>37</title>
<ellipse fill="none" stroke="#000000" cx="603" cy="-162" rx="27" ry="18"/>
<text text-anchor="middle" x="603" y="-158.3" font-family="Times,serif" font-size="14.00" fill="#000000">37</text>
</g>
<!-- 33&#45;&gt;37 -->
<g id="edge102" class="edge">
<title>33&#45;&gt;37</title>
<path fill="none" stroke="#000000" d="M758.7416,-225.7783C729.869,-215.7927 680.3615,-198.0365 639,-180 637.2226,-179.2249 635.4074,-178.4064 633.5837,-177.5629"/>
<polygon fill="#000000" stroke="#000000" points="635.0584,-174.3885 624.5278,-173.2234 632.0334,-180.7011 635.0584,-174.3885"/>
</g>
<!-- 41 -->
<g id="node53" class="node">
<title>41</title>
<ellipse fill="none" stroke="#000000" cx="963" cy="-162" rx="27" ry="18"/>
<text text-anchor="middle" x="963" y="-158.3" font-family="Times,serif" font-size="14.00" fill="#000000">41</text>
</g>
<!-- 33&#45;&gt;41 -->
<g id="edge103" class="edge">
<title>33&#45;&gt;41</title>
<path fill="none" stroke="#000000" d="M804.4711,-222.643C809.1992,-220.3177 814.2227,-217.9788 819,-216 865.745,-196.6376 880.255,-199.3624 927,-180 928.7915,-179.2579 930.6176,-178.4653 932.4498,-177.6416"/>
<polygon fill="#000000" stroke="#000000" points="933.9792,-180.7901 941.5289,-173.357 930.9916,-174.4596 933.9792,-180.7901"/>
</g>
<!-- 49 -->
<g id="node54" class="node">
<title>49</title>
<ellipse fill="none" stroke="#000000" cx="315" cy="-162" rx="27" ry="18"/>
<text text-anchor="middle" x="315" y="-158.3" font-family="Times,serif" font-size="14.00" fill="#000000">49</text>
</g>
<!-- 33&#45;&gt;49 -->
<g id="edge104" class="edge">
<title>33&#45;&gt;49</title>
<path fill="none" stroke="#000000" d="M756.8727,-229.2355C735.0375,-225.3524 703.054,-219.8934 675,-216 531.4893,-196.083 489.9537,-221.035 351,-180 349.09,-179.436 347.1592,-178.7744 345.2357,-178.0441"/>
<polygon fill="#000000" stroke="#000000" points="346.3779,-174.7244 335.8113,-173.9519 343.5899,-181.1452 346.3779,-174.7244"/>
</g>
<!-- 37&#45;&gt;36 -->
<g id="edge135" class="edge">
<title>37&#45;&gt;36</title>
<path fill="none" stroke="#000000" d="M623.36,-149.9853C628.3227,-147.5795 633.7252,-145.3724 639,-144 809.5052,-99.6382 1256.6723,-133.492 1431,-108 1443.3258,-106.1976 1456.6107,-103.1893 1468.3723,-100.1431"/>
<polygon fill="#000000" stroke="#000000" points="1469.5058,-103.4627 1478.2537,-97.4857 1467.6879,-96.7029 1469.5058,-103.4627"/>
</g>
<!-- 37&#45;&gt;39 -->
<g id="edge136" class="edge">
<title>37&#45;&gt;39</title>
<path fill="none" stroke="#000000" d="M603,-143.8314C603,-136.131 603,-126.9743 603,-118.4166"/>
<polygon fill="#000000" stroke="#000000" points="606.5001,-118.4132 603,-108.4133 599.5001,-118.4133 606.5001,-118.4132"/>
</g>
<!-- 45 -->
<g id="node58" class="node">
<title>45</title>
<ellipse fill="none" stroke="#000000" cx="747" cy="-90" rx="27" ry="18"/>
<text text-anchor="middle" x="747" y="-86.3" font-family="Times,serif" font-size="14.00" fill="#000000">45</text>
</g>
<!-- 37&#45;&gt;45 -->
<g id="edge137" class="edge">
<title>37&#45;&gt;45</title>
<path fill="none" stroke="#000000" d="M624.8705,-151.0647C649.2222,-138.8889 688.762,-119.119 716.2285,-105.3858"/>
<polygon fill="#000000" stroke="#000000" points="718.0165,-108.4049 725.3955,-100.8022 714.886,-102.1439 718.0165,-108.4049"/>
</g>
<!-- 41&#45;&gt;40 -->
<g id="edge117" class="edge">
<title>41&#45;&gt;40</title>
<path fill="none" stroke="#000000" d="M983.361,-149.9893C988.3237,-147.5834 993.7259,-145.3752 999,-144 1332.2306,-57.1128 1436.4464,-180.9635 1773,-108 1777.4688,-107.0312 1782.0682,-105.6625 1786.5413,-104.1075"/>
<polygon fill="#000000" stroke="#000000" points="1787.9357,-107.3217 1796.0323,-100.4884 1785.4415,-100.7811 1787.9357,-107.3217"/>
</g>
<!-- 41&#45;&gt;43 -->
<g id="edge118" class="edge">
<title>41&#45;&gt;43</title>
<path fill="none" stroke="#000000" d="M947.7307,-146.7307C937.803,-136.803 924.6847,-123.6847 913.5637,-112.5637"/>
<polygon fill="#000000" stroke="#000000" points="915.7933,-109.8436 906.2473,-105.2473 910.8436,-114.7933 915.7933,-109.8436"/>
</g>
<!-- 41&#45;&gt;45 -->
<g id="edge119" class="edge">
<title>41&#45;&gt;45</title>
<path fill="none" stroke="#000000" d="M942.022,-150.5501C937.1771,-148.1775 931.9808,-145.8425 927,-144 865.128,-121.1121 844.872,-130.8879 783,-108 781.1322,-107.3091 779.2341,-106.5489 777.3356,-105.7434"/>
<polygon fill="#000000" stroke="#000000" points="778.5266,-102.4391 767.978,-101.4499 775.6074,-108.8014 778.5266,-102.4391"/>
</g>
<!-- 49&#45;&gt;48 -->
<g id="edge108" class="edge">
<title>49&#45;&gt;48</title>
<path fill="none" stroke="#000000" d="M335.3562,-149.9708C340.3191,-147.5656 345.7226,-145.3624 351,-144 723.1324,-47.9298 842.8676,-204.0702 1215,-108 1216.979,-107.4891 1218.9758,-106.8599 1220.9604,-106.1463"/>
<polygon fill="#000000" stroke="#000000" points="1222.8105,-109.1629 1230.6438,-102.0292 1220.0715,-102.721 1222.8105,-109.1629"/>
</g>
<!-- 49&#45;&gt;51 -->
<g id="edge109" class="edge">
<title>49&#45;&gt;51</title>
<path fill="none" stroke="#000000" d="M336.0938,-150.75C358.5496,-138.7735 394.2866,-119.7138 419.7401,-106.1386"/>
<polygon fill="#000000" stroke="#000000" points="421.4324,-109.2028 428.6088,-101.4086 418.1382,-103.0263 421.4324,-109.2028"/>
</g>
<!-- 49&#45;&gt;17 -->
<g id="edge110" class="edge">
<title>49&#45;&gt;17</title>
<path fill="none" stroke="#000000" d="M328.6701,-146.3771C337.1734,-136.659 348.2613,-123.987 357.7708,-113.1191"/>
<polygon fill="#000000" stroke="#000000" points="360.4056,-115.423 364.3566,-105.5924 355.1375,-110.8135 360.4056,-115.423"/>
</g>
<!-- 9 -->
<g id="node55" class="node">
<title>9</title>
<ellipse fill="none" stroke="#000000" cx="855" cy="-234" rx="27" ry="18"/>
<text text-anchor="middle" x="855" y="-230.3" font-family="Times,serif" font-size="14.00" fill="#000000">9</text>
</g>
<!-- 9&#45;&gt;8 -->
<g id="edge111" class="edge">
<title>9&#45;&gt;8</title>
<path fill="none" stroke="#000000" d="M882.0033,-231.6207C925.54,-227.8528 1013.9591,-220.4815 1089,-216 1276.8355,-204.7824 1752.8242,-227.1167 1935,-180 1936.9788,-179.4882 1938.9754,-178.8584 1940.9599,-178.1442"/>
<polygon fill="#000000" stroke="#000000" points="1942.8105,-181.1606 1950.6429,-174.0258 1940.0708,-174.719 1942.8105,-181.1606"/>
</g>
<!-- 9&#45;&gt;11 -->
<g id="edge112" class="edge">
<title>9&#45;&gt;11</title>
<path fill="none" stroke="#000000" d="M863.7146,-216.5708C867.9597,-208.0807 873.1536,-197.6929 877.8663,-188.2674"/>
<polygon fill="#000000" stroke="#000000" points="881.024,-189.7782 882.3657,-179.2687 874.763,-186.6477 881.024,-189.7782"/>
</g>
<!-- 9&#45;&gt;1 -->
<g id="edge114" class="edge">
<title>9&#45;&gt;1</title>
<path fill="none" stroke="#000000" d="M835.6918,-221.1278C818.6445,-209.763 793.5981,-193.0654 774.4656,-180.3104"/>
<polygon fill="#000000" stroke="#000000" points="776.4031,-177.3956 766.1411,-174.7607 772.5201,-183.2199 776.4031,-177.3956"/>
</g>
<!-- 9&#45;&gt;41 -->
<g id="edge116" class="edge">
<title>9&#45;&gt;41</title>
<path fill="none" stroke="#000000" d="M874.3082,-221.1278C891.3555,-209.763 916.4019,-193.0654 935.5344,-180.3104"/>
<polygon fill="#000000" stroke="#000000" points="937.4799,-183.2199 943.8589,-174.7607 933.5969,-177.3956 937.4799,-183.2199"/>
</g>
<!-- 13 -->
<g id="node56" class="node">
<title>13</title>
<ellipse fill="none" stroke="#000000" cx="675" cy="-162" rx="27" ry="18"/>
<text text-anchor="middle" x="675" y="-158.3" font-family="Times,serif" font-size="14.00" fill="#000000">13</text>
</g>
<!-- 9&#45;&gt;13 -->
<g id="edge113" class="edge">
<title>9&#45;&gt;13</title>
<path fill="none" stroke="#000000" d="M833.5289,-222.643C828.8008,-220.3177 823.7773,-217.9788 819,-216 772.255,-196.6376 757.745,-199.3624 711,-180 709.2085,-179.2579 707.3824,-178.4653 705.5502,-177.6416"/>
<polygon fill="#000000" stroke="#000000" points="707.0084,-174.4596 696.4711,-173.357 704.0208,-180.7901 707.0084,-174.4596"/>
</g>
<!-- 25 -->
<g id="node57" class="node">
<title>25</title>
<ellipse fill="none" stroke="#000000" cx="459" cy="-162" rx="27" ry="18"/>
<text text-anchor="middle" x="459" y="-158.3" font-family="Times,serif" font-size="14.00" fill="#000000">25</text>
</g>
<!-- 9&#45;&gt;25 -->
<g id="edge115" class="edge">
<title>9&#45;&gt;25</title>
<path fill="none" stroke="#000000" d="M834.1887,-222.0481C829.3352,-219.7016 824.0932,-217.5041 819,-216 680.0463,-174.965 633.9537,-221.035 495,-180 493.09,-179.436 491.1592,-178.7744 489.2357,-178.0441"/>
<polygon fill="#000000" stroke="#000000" points="490.3779,-174.7244 479.8113,-173.9519 487.5899,-181.1452 490.3779,-174.7244"/>
</g>
<!-- 13&#45;&gt;12 -->
<g id="edge147" class="edge">
<title>13&#45;&gt;12</title>
<path fill="none" stroke="#000000" d="M695.358,-149.9777C700.3208,-147.5723 705.7238,-145.3672 711,-144 1067.5709,-51.6032 1182.4291,-200.3968 1539,-108 1540.9786,-107.4873 1542.975,-106.8568 1544.9593,-106.142"/>
<polygon fill="#000000" stroke="#000000" points="1546.8106,-109.1581 1554.642,-102.0223 1544.0699,-102.7169 1546.8106,-109.1581"/>
</g>
<!-- 13&#45;&gt;15 -->
<g id="edge148" class="edge">
<title>13&#45;&gt;15</title>
<path fill="none" stroke="#000000" d="M675,-143.8314C675,-136.131 675,-126.9743 675,-118.4166"/>
<polygon fill="#000000" stroke="#000000" points="678.5001,-118.4132 675,-108.4133 671.5001,-118.4133 678.5001,-118.4132"/>
</g>
<!-- 13&#45;&gt;45 -->
<g id="edge149" class="edge">
<title>13&#45;&gt;45</title>
<path fill="none" stroke="#000000" d="M690.2693,-146.7307C700.197,-136.803 713.3153,-123.6847 724.4363,-112.5637"/>
<polygon fill="#000000" stroke="#000000" points="727.1564,-114.7933 731.7527,-105.2473 722.2067,-109.8436 727.1564,-114.7933"/>
</g>
<!-- 25&#45;&gt;24 -->
<g id="edge120" class="edge">
<title>25&#45;&gt;24</title>
<path fill="none" stroke="#000000" d="M479.3562,-149.9708C484.3191,-147.5656 489.7226,-145.3624 495,-144 867.1324,-47.9298 986.8676,-204.0702 1359,-108 1360.979,-107.4891 1362.9758,-106.8599 1364.9604,-106.1463"/>
<polygon fill="#000000" stroke="#000000" points="1366.8105,-109.1629 1374.6438,-102.0292 1364.0715,-102.721 1366.8105,-109.1629"/>
</g>
<!-- 25&#45;&gt;27 -->
<g id="edge121" class="edge">
<title>25&#45;&gt;27</title>
<path fill="none" stroke="#000000" d="M472.6701,-146.3771C481.1734,-136.659 492.2613,-123.987 501.7708,-113.1191"/>
<polygon fill="#000000" stroke="#000000" points="504.4056,-115.423 508.3566,-105.5924 499.1375,-110.8135 504.4056,-115.423"/>
</g>
<!-- 25&#45;&gt;17 -->
<g id="edge122" class="edge">
<title>25&#45;&gt;17</title>
<path fill="none" stroke="#000000" d="M442.6084,-147.4297C430.9707,-137.0851 415.1572,-123.0286 402.0881,-111.4116"/>
<polygon fill="#000000" stroke="#000000" points="404.1666,-108.5763 394.3672,-104.5486 399.516,-113.8082 404.1666,-108.5763"/>
</g>
<!-- 45&#45;&gt;44 -->
<g id="edge150" class="edge">
<title>45&#45;&gt;44</title>
<path fill="none" stroke="#000000" d="M767.3814,-78.066C772.3433,-75.6569 777.74,-73.4281 783,-72 1015.1295,-8.9772 1083.1408,-53.9882 1323,-36 1390.3427,-30.9496 1469.4181,-24.1343 1510.6815,-20.5105"/>
<polygon fill="#000000" stroke="#000000" points="1511.1481,-23.983 1520.8024,-19.619 1510.5338,-17.01 1511.1481,-23.983"/>
</g>
<!-- 45&#45;&gt;47 -->
<g id="edge151" class="edge">
<title>45&#45;&gt;47</title>
<path fill="none" stroke="#000000" d="M738.2854,-72.5708C733.9155,-63.831 728.5401,-53.0802 723.7192,-43.4383"/>
<polygon fill="#000000" stroke="#000000" points="726.7435,-41.6607 719.1408,-34.2817 720.4825,-44.7912 726.7435,-41.6607"/>
</g>
<!-- 57 -->
<g id="node59" class="node">
<title>57</title>
<ellipse fill="none" stroke="#000000" cx="423" cy="-234" rx="27" ry="18"/>
<text text-anchor="middle" x="423" y="-230.3" font-family="Times,serif" font-size="14.00" fill="#000000">57</text>
</g>
<!-- 57&#45;&gt;56 -->
<g id="edge123" class="edge">
<title>57&#45;&gt;56</title>
<path fill="none" stroke="#000000" d="M449.7984,-230.88C484.9316,-226.8907 548.5018,-220.0197 603,-216 770.7347,-203.628 1196.2745,-222.5254 1359,-180 1360.9775,-179.4832 1362.9731,-178.8495 1364.9568,-178.1324"/>
<polygon fill="#000000" stroke="#000000" points="1366.8107,-181.147 1374.6379,-174.0065 1364.0662,-174.7074 1366.8107,-181.147"/>
</g>
<!-- 57&#45;&gt;59 -->
<g id="edge124" class="edge">
<title>57&#45;&gt;59</title>
<path fill="none" stroke="#000000" d="M414.2854,-216.5708C410.0403,-208.0807 404.8464,-197.6929 400.1337,-188.2674"/>
<polygon fill="#000000" stroke="#000000" points="403.237,-186.6477 395.6343,-179.2687 396.976,-189.7782 403.237,-186.6477"/>
</g>
<!-- 57&#45;&gt;41 -->
<g id="edge127" class="edge">
<title>57&#45;&gt;41</title>
<path fill="none" stroke="#000000" d="M449.7575,-231.2629C552.344,-220.7528 915.4018,-183.4004 927,-180 929.1248,-179.377 931.2751,-178.6325 933.4122,-177.8061"/>
<polygon fill="#000000" stroke="#000000" points="934.8273,-181.0073 942.5754,-173.7812 932.0121,-174.5983 934.8273,-181.0073"/>
</g>
<!-- 57&#45;&gt;49 -->
<g id="edge126" class="edge">
<title>57&#45;&gt;49</title>
<path fill="none" stroke="#000000" d="M403.6918,-221.1278C386.6445,-209.763 361.5981,-193.0654 342.4656,-180.3104"/>
<polygon fill="#000000" stroke="#000000" points="344.4031,-177.3956 334.1411,-174.7607 340.5201,-183.2199 344.4031,-177.3956"/>
</g>
<!-- 57&#45;&gt;25 -->
<g id="edge128" class="edge">
<title>57&#45;&gt;25</title>
<path fill="none" stroke="#000000" d="M431.7146,-216.5708C435.9597,-208.0807 441.1536,-197.6929 445.8663,-188.2674"/>
<polygon fill="#000000" stroke="#000000" points="449.024,-189.7782 450.3657,-179.2687 442.763,-186.6477 449.024,-189.7782"/>
</g>
<!-- 61 -->
<g id="node60" class="node">
<title>61</title>
<ellipse fill="none" stroke="#000000" cx="243" cy="-162" rx="27" ry="18"/>
<text text-anchor="middle" x="243" y="-158.3" font-family="Times,serif" font-size="14.00" fill="#000000">61</text>
</g>
<!-- 57&#45;&gt;61 -->
<g id="edge125" class="edge">
<title>57&#45;&gt;61</title>
<path fill="none" stroke="#000000" d="M401.5289,-222.643C396.8008,-220.3177 391.7773,-217.9788 387,-216 340.255,-196.6376 325.745,-199.3624 279,-180 277.2085,-179.2579 275.3824,-178.4653 273.5502,-177.6416"/>
<polygon fill="#000000" stroke="#000000" points="275.0084,-174.4596 264.4711,-173.357 272.0208,-180.7901 275.0084,-174.4596"/>
</g>
<!-- 61&#45;&gt;60 -->
<g id="edge158" class="edge">
<title>61&#45;&gt;60</title>
<path fill="none" stroke="#000000" d="M263.3562,-149.9708C268.3191,-147.5656 273.7226,-145.3624 279,-144 651.1324,-47.9298 770.8676,-204.0702 1143,-108 1144.979,-107.4891 1146.9758,-106.8599 1148.9604,-106.1463"/>
<polygon fill="#000000" stroke="#000000" points="1150.8105,-109.1629 1158.6438,-102.0292 1148.0715,-102.721 1150.8105,-109.1629"/>
</g>
<!-- 61&#45;&gt;63 -->
<g id="edge159" class="edge">
<title>61&#45;&gt;63</title>
<path fill="none" stroke="#000000" d="M253.437,-145.3008C258.9235,-136.5224 265.7686,-125.5703 271.9163,-115.7339"/>
<polygon fill="#000000" stroke="#000000" points="274.9751,-117.4436 277.3071,-107.1086 269.0391,-113.7336 274.9751,-117.4436"/>
</g>
<!-- 61&#45;&gt;45 -->
<g id="edge160" class="edge">
<title>61&#45;&gt;45</title>
<path fill="none" stroke="#000000" d="M263.3989,-150.1292C268.36,-147.7175 273.752,-145.4716 279,-144 464.5099,-91.9801 525.4901,-160.0199 711,-108 713.132,-107.4022 715.2878,-106.6765 717.4288,-105.8639"/>
<polygon fill="#000000" stroke="#000000" points="718.8294,-109.0715 726.6011,-101.8708 716.0352,-102.6533 718.8294,-109.0715"/>
</g>
<!-- 5 -->
<g id="node61" class="node">
<title>5</title>
<ellipse fill="none" stroke="#000000" cx="639" cy="-234" rx="27" ry="18"/>
<text text-anchor="middle" x="639" y="-230.3" font-family="Times,serif" font-size="14.00" fill="#000000">5</text>
</g>
<!-- 5&#45;&gt;4 -->
<g id="edge129" class="edge">
<title>5&#45;&gt;4</title>
<path fill="none" stroke="#000000" d="M665.067,-228.7404C686.8664,-224.5626 718.8311,-218.9487 747,-216 930.173,-196.8255 1396.7145,-226.1984 1575,-180 1576.9786,-179.4873 1578.975,-178.8568 1580.9593,-178.142"/>
<polygon fill="#000000" stroke="#000000" points="1582.8106,-181.1581 1590.642,-174.0223 1580.0699,-174.7169 1582.8106,-181.1581"/>
</g>
<!-- 5&#45;&gt;7 -->
<g id="edge130" class="edge">
<title>5&#45;&gt;7</title>
<path fill="none" stroke="#000000" d="M619.6918,-221.1278C602.6445,-209.763 577.5981,-193.0654 558.4656,-180.3104"/>
<polygon fill="#000000" stroke="#000000" points="560.4031,-177.3956 550.1411,-174.7607 556.5201,-183.2199 560.4031,-177.3956"/>
</g>
<!-- 5&#45;&gt;1 -->
<g id="edge131" class="edge">
<title>5&#45;&gt;1</title>
<path fill="none" stroke="#000000" d="M658.3082,-221.1278C675.3555,-209.763 700.4019,-193.0654 719.5344,-180.3104"/>
<polygon fill="#000000" stroke="#000000" points="721.4799,-183.2199 727.8589,-174.7607 717.5969,-177.3956 721.4799,-183.2199"/>
</g>
<!-- 5&#45;&gt;37 -->
<g id="edge134" class="edge">
<title>5&#45;&gt;37</title>
<path fill="none" stroke="#000000" d="M630.2854,-216.5708C626.0403,-208.0807 620.8464,-197.6929 616.1337,-188.2674"/>
<polygon fill="#000000" stroke="#000000" points="619.237,-186.6477 611.6343,-179.2687 612.976,-189.7782 619.237,-186.6477"/>
</g>
<!-- 5&#45;&gt;13 -->
<g id="edge132" class="edge">
<title>5&#45;&gt;13</title>
<path fill="none" stroke="#000000" d="M647.7146,-216.5708C651.9597,-208.0807 657.1536,-197.6929 661.8663,-188.2674"/>
<polygon fill="#000000" stroke="#000000" points="665.024,-189.7782 666.3657,-179.2687 658.763,-186.6477 665.024,-189.7782"/>
</g>
<!-- 21 -->
<g id="node62" class="node">
<title>21</title>
<ellipse fill="none" stroke="#000000" cx="99" cy="-162" rx="27" ry="18"/>
<text text-anchor="middle" x="99" y="-158.3" font-family="Times,serif" font-size="14.00" fill="#000000">21</text>
</g>
<!-- 5&#45;&gt;21 -->
<g id="edge133" class="edge">
<title>5&#45;&gt;21</title>
<path fill="none" stroke="#000000" d="M612.2425,-231.2629C509.656,-220.7528 146.5982,-183.4004 135,-180 132.8752,-179.377 130.7249,-178.6325 128.5878,-177.8061"/>
<polygon fill="#000000" stroke="#000000" points="129.9879,-174.5983 119.4246,-173.7812 127.1727,-181.0073 129.9879,-174.5983"/>
</g>
<!-- 21&#45;&gt;20 -->
<g id="edge138" class="edge">
<title>21&#45;&gt;20</title>
<path fill="none" stroke="#000000" d="M119.36,-149.9853C124.3227,-147.5795 129.7252,-145.3724 135,-144 305.5052,-99.6382 751.2817,-120.7701 927,-108 976.6058,-104.395 1033.7218,-98.3618 1070.0724,-94.2843"/>
<polygon fill="#000000" stroke="#000000" points="1070.6598,-97.7402 1080.2029,-93.1381 1069.8728,-90.7846 1070.6598,-97.7402"/>
</g>
<!-- 21&#45;&gt;23 -->
<g id="edge139" class="edge">
<title>21&#45;&gt;23</title>
<path fill="none" stroke="#000000" d="M115.3916,-147.4297C127.0293,-137.0851 142.8428,-123.0286 155.9119,-111.4116"/>
<polygon fill="#000000" stroke="#000000" points="158.484,-113.8082 163.6328,-104.5486 153.8334,-108.5763 158.484,-113.8082"/>
</g>
<!-- 21&#45;&gt;17 -->
<g id="edge140" class="edge">
<title>21&#45;&gt;17</title>
<path fill="none" stroke="#000000" d="M119.9035,-150.3394C124.7522,-147.9777 129.9689,-145.7004 135,-144 216.0083,-116.6201 241.2546,-129.5684 324,-108 330.7461,-106.2416 337.8749,-104.0853 344.6632,-101.8841"/>
<polygon fill="#000000" stroke="#000000" points="345.9072,-105.1587 354.281,-98.668 343.6872,-98.5201 345.9072,-105.1587"/>
</g>
<!-- 53 -->
<g id="node63" class="node">
<title>53</title>
<ellipse fill="none" stroke="#000000" cx="279" cy="-234" rx="27" ry="18"/>
<text text-anchor="middle" x="279" y="-230.3" font-family="Times,serif" font-size="14.00" fill="#000000">53</text>
</g>
<!-- 53&#45;&gt;52 -->
<g id="edge141" class="edge">
<title>53&#45;&gt;52</title>
<path fill="none" stroke="#000000" d="M299.3621,-221.9935C304.3247,-219.5874 309.7267,-217.3781 315,-216 640.451,-130.9492 745.549,-265.0508 1071,-180 1072.9775,-179.4832 1074.9731,-178.8495 1076.9568,-178.1324"/>
<polygon fill="#000000" stroke="#000000" points="1078.8107,-181.147 1086.6379,-174.0065 1076.0662,-174.7074 1078.8107,-181.147"/>
</g>
<!-- 53&#45;&gt;55 -->
<g id="edge142" class="edge">
<title>53&#45;&gt;55</title>
<path fill="none" stroke="#000000" d="M252.8468,-229.3813C211.6602,-221.6838 129.5245,-204.609 63,-180 61.1322,-179.3091 59.2341,-178.5489 57.3356,-177.7434"/>
<polygon fill="#000000" stroke="#000000" points="58.5266,-174.4391 47.978,-173.4499 55.6074,-180.8014 58.5266,-174.4391"/>
</g>
<!-- 53&#45;&gt;37 -->
<g id="edge145" class="edge">
<title>53&#45;&gt;37</title>
<path fill="none" stroke="#000000" d="M299.8471,-222.1659C304.6987,-219.8132 309.9309,-217.5835 315,-216 422.9909,-182.2662 459.0091,-213.7338 567,-180 568.9009,-179.4062 570.8248,-178.7215 572.7429,-177.9736"/>
<polygon fill="#000000" stroke="#000000" points="574.4087,-181.0645 582.1529,-173.8341 571.5901,-174.657 574.4087,-181.0645"/>
</g>
<!-- 53&#45;&gt;49 -->
<g id="edge143" class="edge">
<title>53&#45;&gt;49</title>
<path fill="none" stroke="#000000" d="M287.7146,-216.5708C291.9597,-208.0807 297.1536,-197.6929 301.8663,-188.2674"/>
<polygon fill="#000000" stroke="#000000" points="305.024,-189.7782 306.3657,-179.2687 298.763,-186.6477 305.024,-189.7782"/>
</g>
<!-- 53&#45;&gt;61 -->
<g id="edge144" class="edge">
<title>53&#45;&gt;61</title>
<path fill="none" stroke="#000000" d="M270.2854,-216.5708C266.0403,-208.0807 260.8464,-197.6929 256.1337,-188.2674"/>
<polygon fill="#000000" stroke="#000000" points="259.237,-186.6477 251.6343,-179.2687 252.976,-189.7782 259.237,-186.6477"/>
</g>
<!-- 53&#45;&gt;21 -->
<g id="edge146" class="edge">
<title>53&#45;&gt;21</title>
<path fill="none" stroke="#000000" d="M254.7416,-225.7783C225.869,-215.7927 176.3615,-198.0365 135,-180 133.2226,-179.2249 131.4074,-178.4064 129.5837,-177.5629"/>
<polygon fill="#000000" stroke="#000000" points="131.0584,-174.3885 120.5278,-173.2234 128.0334,-180.7011 131.0584,-174.3885"/>
</g>
<!-- 29 -->
<g id="node64" class="node">
<title>29</title>
<ellipse fill="none" stroke="#000000" cx="351" cy="-234" rx="27" ry="18"/>
<text text-anchor="middle" x="351" y="-230.3" font-family="Times,serif" font-size="14.00" fill="#000000">29</text>
</g>
<!-- 29&#45;&gt;28 -->
<g id="edge152" class="edge">
<title>29&#45;&gt;28</title>
<path fill="none" stroke="#000000" d="M371.3621,-221.9935C376.3247,-219.5874 381.7267,-217.3781 387,-216 712.451,-130.9492 817.549,-265.0508 1143,-180 1144.9775,-179.4832 1146.9731,-178.8495 1148.9568,-178.1324"/>
<polygon fill="#000000" stroke="#000000" points="1150.8107,-181.147 1158.6379,-174.0065 1148.0662,-174.7074 1150.8107,-181.147"/>
</g>
<!-- 29&#45;&gt;31 -->
<g id="edge153" class="edge">
<title>29&#45;&gt;31</title>
<path fill="none" stroke="#000000" d="M329.5289,-222.643C324.8008,-220.3177 319.7773,-217.9788 315,-216 268.255,-196.6376 253.745,-199.3624 207,-180 205.2085,-179.2579 203.3824,-178.4653 201.5502,-177.6416"/>
<polygon fill="#000000" stroke="#000000" points="203.0084,-174.4596 192.4711,-173.357 200.0208,-180.7901 203.0084,-174.4596"/>
</g>
<!-- 29&#45;&gt;13 -->
<g id="edge156" class="edge">
<title>29&#45;&gt;13</title>
<path fill="none" stroke="#000000" d="M371.8471,-222.1659C376.6987,-219.8132 381.9309,-217.5835 387,-216 494.9909,-182.2662 531.0091,-213.7338 639,-180 640.9009,-179.4062 642.8248,-178.7215 644.7429,-177.9736"/>
<polygon fill="#000000" stroke="#000000" points="646.4087,-181.0645 654.1529,-173.8341 643.5901,-174.657 646.4087,-181.0645"/>
</g>
<!-- 29&#45;&gt;25 -->
<g id="edge154" class="edge">
<title>29&#45;&gt;25</title>
<path fill="none" stroke="#000000" d="M370.3082,-221.1278C387.3555,-209.763 412.4019,-193.0654 431.5344,-180.3104"/>
<polygon fill="#000000" stroke="#000000" points="433.4799,-183.2199 439.8589,-174.7607 429.5969,-177.3956 433.4799,-183.2199"/>
</g>
<!-- 29&#45;&gt;61 -->
<g id="edge157" class="edge">
<title>29&#45;&gt;61</title>
<path fill="none" stroke="#000000" d="M331.6918,-221.1278C314.6445,-209.763 289.5981,-193.0654 270.4656,-180.3104"/>
<polygon fill="#000000" stroke="#000000" points="272.4031,-177.3956 262.1411,-174.7607 268.5201,-183.2199 272.4031,-177.3956"/>
</g>
<!-- 29&#45;&gt;21 -->
<g id="edge155" class="edge">
<title>29&#45;&gt;21</title>
<path fill="none" stroke="#000000" d="M330.0849,-222.3736C325.2367,-220.0101 320.0232,-217.7235 315,-216 237.8316,-189.5229 212.1684,-206.4771 135,-180 133.1163,-179.3537 131.2058,-178.6282 129.2979,-177.8491"/>
<polygon fill="#000000" stroke="#000000" points="130.4706,-174.5388 119.9151,-173.6264 127.5978,-180.9222 130.4706,-174.5388"/>
</g>
</g>
</svg>
